<svg width="70" height="70" viewBox="0 0 70 70" fill="none" xmlns="http://www.w3.org/2000/svg">
<circle cx="35" cy="35" r="35" fill="url(#paint0_linear)"/>
<g opacity="0.5">
<path d="M45.4 22.2V20C45.4 17.2386 43.1614 15 40.4 15H28C25.2386 15 23 17.2386 23 20V50C23 52.7614 25.2386 55 28 55H40.4C43.1614 55 45.4 52.7614 45.4 50V48.2" stroke="white" stroke-width="3" stroke-linecap="round"/>
<circle cx="34.2" cy="51.8" r="0.8" fill="white"/>
<path fill-rule="evenodd" clip-rule="evenodd" d="M34.0667 17.4C33.6985 17.4 33.4 17.7582 33.4 18.2C33.4 18.6419 33.6985 19 34.0667 19H36.7333C37.1015 19 37.4 18.6419 37.4 18.2C37.4 17.7582 37.1015 17.4 36.7333 17.4H34.0667ZM31.8 19C32.2418 19 32.6 18.6419 32.6 18.2C32.6 17.7582 32.2418 17.4 31.8 17.4C31.3582 17.4 31 17.7582 31 18.2C31 18.6419 31.3582 19 31.8 19Z" fill="white"/>
<path d="M45.4 21.4H23" stroke="white" stroke-width="3" stroke-linecap="round"/>
<path d="M45.4 48.6H23" stroke="white" stroke-width="3" stroke-linecap="round"/>
</g>
<mask id="mask0" mask-type="alpha" maskUnits="userSpaceOnUse" x="38" y="22" width="21" height="25">
<path d="M38.2 46.6V23.4L56.2 22.2L58.6 27.4L57.8 45.8L38.2 46.6Z" fill="#C4C4C4"/>
</mask>
<g mask="url(#mask0)">
<circle cx="45" cy="35" r="8" stroke="white" stroke-width="3" stroke-linecap="round"/>
<path d="M44.5781 37.7012C43.9365 37.6719 43.3184 37.5283 42.7236 37.2705V35.8115C43.0635 35.9844 43.4326 36.1294 43.8311 36.2466C44.2295 36.3608 44.5796 36.418 44.8813 36.418C45.1304 36.418 45.312 36.3887 45.4263 36.3301C45.5435 36.2686 45.6021 36.1675 45.6021 36.0269C45.6021 35.9302 45.5596 35.8481 45.4746 35.7808C45.3926 35.7134 45.2534 35.6372 45.0571 35.5522C44.8638 35.4673 44.6016 35.3647 44.2705 35.2446C43.8984 35.1069 43.5981 34.9531 43.3696 34.7832C43.1411 34.6104 42.9741 34.4185 42.8687 34.2075C42.7661 33.9937 42.7148 33.7285 42.7148 33.4121C42.7148 32.9287 42.8701 32.5508 43.1807 32.2783C43.4912 32.0059 43.957 31.8374 44.5781 31.7729V31.1709H45.4878V31.7642C46.0708 31.7964 46.6582 31.9399 47.25 32.1948L46.7271 33.4473C46.1147 33.1719 45.5625 33.0342 45.0703 33.0342C44.8359 33.0342 44.6704 33.0635 44.5737 33.1221C44.48 33.1777 44.4331 33.2612 44.4331 33.3726C44.4331 33.4692 44.4668 33.5498 44.5342 33.6143C44.6045 33.6758 44.7246 33.7461 44.8945 33.8252C45.0645 33.9014 45.3003 33.9907 45.6021 34.0933C46.2144 34.3101 46.6538 34.5576 46.9204 34.8359C47.187 35.1113 47.3203 35.4673 47.3203 35.9038C47.3203 36.396 47.1636 36.7959 46.8501 37.1035C46.5396 37.4111 46.0854 37.6016 45.4878 37.6748V38.5229H44.5781V37.7012Z" fill="white"/>
</g>
<path d="M38.2 25.4V44.6" stroke="white" stroke-width="3" stroke-linecap="round"/>
<defs>
<linearGradient id="paint0_linear" x1="3.67038e-08" y1="-29.75" x2="48.5625" y2="70" gradientUnits="userSpaceOnUse">
<stop stop-color="#FE33B9"/>
<stop offset="1" stop-color="#8B41A0"/>
</linearGradient>
</defs>
</svg>
