<svg width="70" height="70" viewBox="0 0 70 70" fill="none" xmlns="http://www.w3.org/2000/svg">
<circle cx="35" cy="35" r="35" fill="url(#paint0_linear)"/>
<path d="M28.9435 34.3907L38.8494 18.3705C39.1734 17.8466 39.9735 18.2579 39.736 18.8262L35.0895 29.9478C34.8142 30.6066 35.2982 31.3333 36.0122 31.3333H43.8981C44.7403 31.3333 45.2053 32.3107 44.674 32.9642L31.1815 49.5581C30.8057 50.0204 30.0816 49.5558 30.3452 49.0215L36.0972 37.359C36.4249 36.6944 35.9413 35.9167 35.2003 35.9167H29.7941C29.0108 35.9167 28.5316 35.057 28.9435 34.3907Z" fill="white"/>
<path opacity="0.5" fill-rule="evenodd" clip-rule="evenodd" d="M20.9999 24.619C23.071 24.619 24.7499 22.9135 24.7499 20.8095C24.7499 18.7056 23.071 17 20.9999 17C18.9289 17 17.2499 18.7056 17.2499 20.8095C17.2499 22.9135 18.9289 24.619 20.9999 24.619ZM21 25.381C17.6863 25.381 15 28.0672 15 31.381V31.4958C15 32.3266 15.6734 33 16.5042 33H25.4958C26.3266 33 27 32.3266 27 31.4958V31.381C27 28.0672 24.3137 25.381 21 25.381Z" fill="white"/>
<path opacity="0.5" fill-rule="evenodd" clip-rule="evenodd" d="M48.9999 44.619C51.071 44.619 52.7499 42.9135 52.7499 40.8095C52.7499 38.7056 51.071 37 48.9999 37C46.9289 37 45.2499 38.7056 45.2499 40.8095C45.2499 42.9135 46.9289 44.619 48.9999 44.619ZM49 45.381C45.6863 45.381 43 48.0672 43 51.381V51.4958C43 52.3266 43.6734 53 44.5042 53H53.4958C54.3266 53 55 52.3266 55 51.4958V51.381C55 48.0672 52.3137 45.381 49 45.381Z" fill="white"/>
<defs>
<linearGradient id="paint0_linear" x1="3.67038e-08" y1="-29.75" x2="48.5625" y2="70" gradientUnits="userSpaceOnUse">
<stop stop-color="#FE33B9"/>
<stop offset="1" stop-color="#8B41A0"/>
</linearGradient>
</defs>
</svg>
