<svg width="70" height="70" viewBox="0 0 70 70" fill="none" xmlns="http://www.w3.org/2000/svg">
<circle cx="35" cy="35" r="35" fill="url(#paint0_linear)"/>
<g opacity="0.5">
<path d="M45 15H25C23.8954 15 23.0048 15.893 23.0441 16.9969C23.1216 19.1733 23.335 22.8366 23.9231 26.5C24.1167 27.7059 24.3509 28.9119 24.6001 30.0648C25.6339 34.8462 30.0101 38 34.902 38C39.8876 38 44.3241 34.7289 45.4032 29.8614C45.6512 28.7428 45.8842 27.6005 46.0769 26.5C46.6755 23.0823 46.8859 19.2616 46.9599 16.9975C46.996 15.8935 46.1046 15 45 15Z" stroke="white" stroke-width="3"/>
<path d="M47 18H52C52.5523 18 53 18.4477 53 19V23C53 27.9706 48.9706 32 44 32V32" stroke="white" stroke-width="3"/>
<path d="M23 18H18C17.4477 18 17 18.4477 17 19V23C17 27.9706 21.0294 32 26 32V32" stroke="white" stroke-width="3"/>
<path d="M38.5 38.5H31.5C31.5 38.5 31 42 30 44.5C29.3548 46.1129 28.2935 47.7258 27.6214 48.6674C27.3779 49.0086 27.6211 49.5 28.0403 49.5H42.0657C42.4651 49.5 42.708 49.0524 42.4967 48.7136C41.8372 47.6562 40.6844 45.711 40 44C39 41.5 38.5 38.5 38.5 38.5Z" stroke="white" stroke-width="3"/>
<path d="M27 50C27 49.4477 27.4477 49 28 49H42C42.5523 49 43 49.4477 43 50V54H27V50Z" stroke="white" stroke-width="3"/>
<path d="M23 54.5H47" stroke="white" stroke-width="3" stroke-linecap="round"/>
</g>
<path d="M34.1188 19.6428C34.4959 18.9397 35.5041 18.9397 35.8812 19.6428L37.2403 22.1763C37.3846 22.4453 37.6438 22.6337 37.9442 22.6878L40.7738 23.1974C41.559 23.3388 41.8705 24.2977 41.3184 24.8736L39.3288 26.9491C39.1176 27.1694 39.0186 27.4742 39.0599 27.7766L39.4496 30.6251C39.5577 31.4156 38.7421 32.0082 38.0238 31.6611L35.4351 30.4102C35.1602 30.2774 34.8398 30.2774 34.5649 30.4102L31.9762 31.6611C31.2579 32.0082 30.4423 31.4156 30.5504 30.6251L30.9401 27.7766C30.9814 27.4742 30.8824 27.1694 30.6712 26.9491L28.6816 24.8736C28.1295 24.2977 28.441 23.3388 29.2262 23.1974L32.0558 22.6878C32.3562 22.6337 32.6154 22.4453 32.7597 22.1763L34.1188 19.6428Z" fill="white"/>
<defs>
<linearGradient id="paint0_linear" x1="3.67038e-08" y1="-29.75" x2="48.5625" y2="70" gradientUnits="userSpaceOnUse">
<stop stop-color="#FE33B9"/>
<stop offset="1" stop-color="#8B41A0"/>
</linearGradient>
</defs>
</svg>
