<svg width="284" height="325" viewBox="0 0 284 325" fill="none" xmlns="http://www.w3.org/2000/svg">
<path d="M207.501 210.725L210.691 85.7801C211.298 62.0016 187.181 45.5072 165.241 54.6955L49.9573 102.976C25.9856 113.015 22.6606 145.62 44.1123 160.291L156.206 236.956C177.658 251.627 206.837 236.706 207.501 210.725Z" stroke="white"/>
<g filter="url(#filter0_d)">
<g filter="url(#filter1_f)">
<circle cx="55.3969" cy="129.122" r="29.6992" transform="rotate(-57.0173 55.3969 129.122)" fill="url(#paint0_linear)"/>
</g>
<circle cx="54.0806" cy="130.973" r="29.6992" transform="rotate(-57.0173 54.0806 130.973)" fill="#EA7E00"/>
<circle cx="57.111" cy="127.408" r="29.6992" transform="rotate(-57.0173 57.111 127.408)" fill="url(#paint1_linear)"/>
<g filter="url(#filter2_i)">
<circle cx="57.111" cy="127.408" r="23.41" transform="rotate(-57.0173 57.111 127.408)" fill="url(#paint2_linear)"/>
</g>
<g filter="url(#filter3_d)">
<path d="M62.008 137.592C59.7278 138.827 57.2906 139.618 54.6966 139.965L51.6577 134.919C53.1932 134.809 54.7721 134.542 56.3943 134.117C58.0104 133.682 59.3403 133.151 60.384 132.522C61.2453 132.003 61.8126 131.524 62.0857 131.083C62.3629 130.626 62.3551 130.155 62.0622 129.668C61.8608 129.334 61.543 129.139 61.1088 129.083C60.6847 129.02 60.0447 129.047 59.1888 129.162C58.3431 129.271 57.2226 129.462 55.8273 129.736C54.2536 130.035 52.8946 130.128 51.7503 130.017C50.5998 129.895 49.6226 129.579 48.8184 129.069C48.0183 128.543 47.2887 127.732 46.6297 126.638C45.6228 124.966 45.3727 123.335 45.8793 121.746C46.386 120.157 47.6463 118.604 49.6603 117.087L48.4063 115.005L51.5526 113.11L52.7883 115.162C54.872 114.06 57.2027 113.333 59.7805 112.982L60.5804 118.403C57.8889 118.726 55.692 119.4 53.9896 120.425C53.179 120.913 52.6675 121.359 52.4551 121.763C52.2468 122.151 52.2586 122.537 52.4904 122.922C52.6918 123.257 52.9762 123.465 53.3435 123.548C53.7148 123.614 54.2767 123.607 55.0292 123.527C55.7756 123.436 56.7774 123.254 58.0347 122.98C60.6041 122.455 62.6398 122.396 64.1416 122.803C65.6373 123.2 66.8398 124.154 67.749 125.664C68.7742 127.366 69.065 129.076 68.6215 130.793C68.1881 132.504 67.014 134.108 65.0994 135.606L66.866 138.54L63.7196 140.434L62.008 137.592Z" fill="white"/>
</g>
</g>
<path d="M150.298 247.534L249.881 147.684C268.833 128.681 261.884 96.4556 236.784 86.953L104.9 37.0208C77.4765 26.6381 49.4489 50.7596 55.6306 79.4238L87.9321 229.206C94.1137 257.87 129.592 268.296 150.298 247.534Z" fill="url(#paint3_linear)"/>
<path d="M68.5586 104.583L71.4606 103.966C72.8068 103.68 73.8203 103.67 74.501 103.935C75.1862 104.199 75.6188 104.755 75.7988 105.602C75.9201 106.173 75.8739 106.679 75.6602 107.12C75.4465 107.561 75.0738 107.89 74.5418 108.105L74.5561 108.172C75.27 108.156 75.8282 108.305 76.2307 108.62C76.6366 108.93 76.9088 109.41 77.0471 110.061C77.2338 110.939 77.0726 111.693 76.5635 112.323C76.058 112.948 75.2592 113.376 74.167 113.608L70.6365 114.359L68.5586 104.583ZM71.0152 108.282L72.5531 107.955C73.2217 107.813 73.6876 107.605 73.9506 107.33C74.2127 107.05 74.2898 106.657 74.1817 106.148C74.0842 105.689 73.8464 105.393 73.4685 105.259C73.095 105.124 72.5472 105.133 71.8251 105.286L70.441 105.581L71.0152 108.282ZM71.2909 109.579L71.9489 112.675L73.6473 112.314C74.316 112.172 74.7927 111.938 75.0775 111.612C75.3658 111.28 75.4512 110.838 75.3337 110.285C75.2256 109.777 74.9717 109.437 74.5719 109.266C74.1721 109.095 73.6178 109.085 72.909 109.235L71.2909 109.579ZM85.2065 111.262L79.6767 112.437L77.5988 102.661L83.1286 101.486L83.4157 102.837L79.484 103.672L80.0497 106.334L83.734 105.551L84.0182 106.888L80.334 107.671L80.9863 110.74L84.918 109.904L85.2065 111.262ZM93.3909 109.522L91.8376 107.015L88.0998 107.809L87.7207 110.727L86.0357 111.086L87.6068 100.492L89.3453 100.123L95.0893 109.161L93.3909 109.522ZM91.1236 105.727L89.6418 103.261C89.5371 103.096 89.3838 102.836 89.1819 102.478C88.9845 102.119 88.8446 101.855 88.7621 101.686C88.7583 102.26 88.7097 102.897 88.6162 103.597L88.2751 106.333L91.1236 105.727ZM99.7565 108.169L98.1584 108.509L96.3719 100.104L93.4966 100.715L93.2053 99.3442L100.554 97.7823L100.845 99.153L97.9699 99.7641L99.7565 108.169ZM109.325 100.579L110.691 95.6276L112.429 95.2581L110.445 101.935L111.251 105.726L109.646 106.067L108.851 102.329L104.325 96.9807L106.064 96.6111L109.325 100.579ZM123.435 98.0135C123.773 99.6049 123.637 100.927 123.027 101.979C122.421 103.03 121.389 103.711 119.931 104.021C118.456 104.334 117.229 104.139 116.249 103.433C115.274 102.723 114.614 101.561 114.271 99.9472C113.928 98.3335 114.062 97.01 114.671 95.9765C115.286 94.9421 116.33 94.2681 117.806 93.9545C119.259 93.6456 120.476 93.8459 121.456 94.5554C122.436 95.2649 123.096 96.4176 123.435 98.0135ZM115.973 99.5996C116.229 100.803 116.666 101.665 117.284 102.186C117.902 102.703 118.688 102.859 119.642 102.657C120.591 102.455 121.241 101.995 121.592 101.278C121.947 100.559 121.995 99.5914 121.736 98.3745C121.482 97.1753 121.048 96.3171 120.434 95.7999C119.826 95.2816 119.047 95.1234 118.097 95.3252C117.139 95.5289 116.48 95.9927 116.122 96.7166C115.767 97.4395 115.718 98.4005 115.973 99.5996ZM132.161 91.0639L133.506 97.3894C133.659 98.1115 133.638 98.7777 133.441 99.3879C133.248 99.9926 132.889 100.505 132.363 100.924C131.841 101.338 131.172 101.631 130.356 101.805C129.143 102.063 128.132 101.942 127.323 101.443C126.513 100.944 125.989 100.133 125.75 99.0099L124.411 92.7112L126.016 92.3701L127.331 98.5551C127.502 99.362 127.816 99.9173 128.272 100.221C128.728 100.525 129.344 100.594 130.119 100.429C131.626 100.109 132.211 99.1578 131.875 97.5753L130.563 91.4036L132.161 91.0639ZM137.226 94.7395L138.336 94.5036C139.081 94.3454 139.591 94.0925 139.866 93.7451C140.142 93.3976 140.222 92.952 140.106 92.4082C139.989 91.8554 139.724 91.497 139.312 91.3331C138.9 91.1691 138.33 91.1643 137.604 91.3188L136.547 91.5434L137.226 94.7395ZM137.508 96.0635L138.338 99.9684L136.74 100.308L134.662 90.5324L137.423 89.9454C138.685 89.6772 139.669 89.715 140.376 90.0586C141.082 90.4023 141.537 91.0511 141.74 92.005C141.999 93.222 141.55 94.2236 140.394 95.0097L144.075 98.749L142.256 99.1356L139.086 95.728L137.508 96.0635Z" fill="white"/>
<g filter="url(#filter4_d)">
<path d="M99.056 197.497L87.4577 199.962L80.6179 184.881C80.3116 184.254 79.7669 182.994 78.9838 181.101C78.2173 179.205 77.6105 177.612 77.1634 176.322C77.2597 177.427 77.3295 178.814 77.3729 180.483C77.4127 182.136 77.4261 183.665 77.4132 185.069C77.4168 186.47 77.3707 192.156 77.275 202.127L65.6767 204.592L48.9682 170.193L58.4307 168.182L66.2491 185.547C67.9984 189.38 69.292 192.454 70.1299 194.768C69.9862 193.033 69.8796 190.659 69.8101 187.646C69.7571 184.628 69.7684 182.117 69.8438 180.111L70.1283 165.695L79.2182 163.763L85.242 176.838C86.2399 178.927 87.3182 181.354 88.477 184.119C89.6357 186.884 90.4575 188.959 90.9423 190.344C90.7669 188.46 90.6772 185.148 90.6732 180.407L90.8165 161.298L100.279 159.287L99.056 197.497ZM112.691 194.599L104.973 158.289L114.833 156.193L122.551 192.503L112.691 194.599ZM164.995 183.481L152.13 186.216L133.43 163.454L133.207 163.501C134.377 167.458 135.187 170.496 135.637 172.615L139.116 188.982L130.424 190.83L122.706 154.52L135.521 151.796L154.097 174.221L154.246 174.189C153.236 170.579 152.496 167.665 152.024 165.446L148.535 149.03L157.277 147.171L164.995 183.481ZM194.29 175.489C190.629 176.094 186.963 176.026 183.292 175.283L181.539 167.038C183.668 167.606 185.928 167.982 188.32 168.166C190.71 168.333 192.757 168.236 194.462 167.873C195.869 167.574 196.861 167.19 197.436 166.722C198.025 166.233 198.234 165.592 198.065 164.797C197.949 164.25 197.611 163.838 197.05 163.559C196.505 163.277 195.627 163.014 194.416 162.769C193.221 162.521 191.616 162.257 189.6 161.976C187.332 161.644 185.45 161.136 183.955 160.45C182.456 159.748 181.281 158.864 180.432 157.798C179.596 156.713 178.987 155.276 178.607 153.488C178.027 150.756 178.45 148.434 179.878 146.521C181.306 144.608 183.736 143.096 187.169 141.986L186.445 138.583L191.586 137.491L192.299 140.843C195.633 140.325 199.125 140.431 202.775 141.16L201.325 148.867C197.533 148.046 194.247 147.931 191.465 148.522C190.141 148.804 189.24 149.168 188.764 149.616C188.301 150.043 188.137 150.571 188.271 151.2C188.387 151.747 188.674 152.162 189.132 152.445C189.603 152.708 190.367 152.961 191.422 153.204C192.474 153.43 193.914 153.652 195.743 153.869C199.463 154.359 202.244 155.23 204.085 156.483C205.923 157.719 207.104 159.57 207.628 162.037C208.22 164.819 207.814 167.267 206.412 169.382C205.027 171.494 202.689 173.116 199.399 174.248L200.418 179.041L195.277 180.134L194.29 175.489ZM224.093 169.155C220.432 169.76 216.766 169.691 213.095 168.948L211.342 160.703C213.47 161.271 215.731 161.648 218.123 161.831C220.512 161.998 222.56 161.901 224.265 161.538C225.672 161.239 226.664 160.855 227.239 160.387C227.828 159.898 228.037 159.257 227.868 158.462C227.752 157.916 227.414 157.503 226.852 157.224C226.308 156.942 225.43 156.679 224.219 156.434C223.024 156.187 221.419 155.922 219.403 155.641C217.135 155.31 215.253 154.801 213.758 154.115C212.259 153.413 211.084 152.529 210.235 151.464C209.399 150.378 208.79 148.941 208.41 147.153C207.829 144.421 208.253 142.099 209.681 140.186C211.109 138.273 213.539 136.761 216.971 135.651L216.248 132.249L221.389 131.156L222.102 134.509C225.436 133.99 228.928 134.096 232.578 134.826L231.127 142.532C227.336 141.711 224.05 141.596 221.268 142.188C219.944 142.469 219.043 142.834 218.567 143.281C218.104 143.708 217.94 144.236 218.073 144.865C218.19 145.412 218.477 145.827 218.935 146.11C219.406 146.373 220.17 146.626 221.225 146.869C222.277 147.096 223.717 147.317 225.546 147.534C229.266 148.024 232.047 148.895 233.888 150.148C235.726 151.384 236.907 153.236 237.431 155.703C238.023 158.484 237.617 160.933 236.215 163.048C234.829 165.159 232.492 166.781 229.202 167.913L230.221 172.706L225.08 173.799L224.093 169.155ZM253.896 162.82C250.235 163.425 246.569 163.356 242.898 162.614L241.145 154.368C243.273 154.937 245.534 155.313 247.926 155.496C250.315 155.664 252.363 155.566 254.068 155.203C255.475 154.904 256.467 154.52 257.042 154.052C257.63 153.564 257.84 152.922 257.671 152.127C257.555 151.581 257.216 151.168 256.655 150.89C256.111 150.607 255.233 150.344 254.021 150.1C252.827 149.852 251.222 149.587 249.206 149.306C246.938 148.975 245.056 148.466 243.561 147.78C242.062 147.078 240.887 146.194 240.038 145.129C239.201 144.043 238.593 142.606 238.213 140.818C237.632 138.086 238.056 135.764 239.484 133.851C240.911 131.938 243.342 130.427 246.774 129.316L246.051 125.914L251.192 124.821L251.905 128.174C255.238 127.656 258.731 127.761 262.381 128.491L260.93 136.197C257.139 135.376 253.853 135.262 251.071 135.853C249.747 136.134 248.846 136.499 248.37 136.946C247.907 137.373 247.743 137.901 247.876 138.531C247.993 139.077 248.28 139.492 248.738 139.775C249.209 140.038 249.973 140.292 251.028 140.534C252.08 140.761 253.52 140.983 255.348 141.2C259.069 141.689 261.85 142.56 263.691 143.813C265.529 145.049 266.71 146.901 267.234 149.368C267.825 152.149 267.42 154.598 266.018 156.713C264.632 158.824 262.295 160.446 259.005 161.578L260.024 166.371L254.883 167.464L253.896 162.82Z" fill="white"/>
</g>
<path d="M102.752 132.014C103.44 135.25 103.166 137.908 101.931 139.988C100.696 142.067 98.5805 143.425 95.5849 144.062C92.5894 144.699 90.1044 144.318 88.1301 142.921C86.1558 141.524 84.8228 139.198 84.1311 135.944C83.4394 132.69 83.7141 130.036 84.955 127.983C86.2029 125.92 88.3292 124.568 91.3336 123.93C94.3381 123.291 96.8177 123.668 98.7723 125.06C100.736 126.451 102.062 128.768 102.752 132.014ZM88.4831 135.047C88.9474 137.231 89.7116 138.788 90.7757 139.717C91.8398 140.646 93.1965 140.936 94.8459 140.585C98.1535 139.882 99.3402 137.333 98.4059 132.937C97.4698 128.533 95.3568 126.681 92.067 127.38C90.4177 127.731 89.2924 128.552 88.6912 129.845C88.0882 131.128 88.0188 132.862 88.4831 135.047ZM110.833 129.723L112.197 129.433C113.472 129.162 114.373 128.71 114.9 128.076C115.425 127.433 115.585 126.63 115.381 125.667C115.174 124.696 114.754 124.035 114.121 123.685C113.496 123.333 112.618 123.277 111.485 123.518L109.6 123.919L110.833 129.723ZM119.535 124.631C119.982 126.735 119.665 128.484 118.582 129.879C117.508 131.272 115.759 132.226 113.334 132.742L111.555 133.12L113.033 140.074L108.888 140.955L104.732 121.403L110.977 120.076C113.349 119.572 115.259 119.702 116.707 120.465C118.162 121.218 119.105 122.607 119.535 124.631ZM128.031 126.067L129.395 125.777C130.67 125.506 131.571 125.054 132.098 124.42C132.623 123.777 132.783 122.975 132.578 122.012C132.372 121.04 131.952 120.379 131.318 120.029C130.694 119.678 129.815 119.622 128.683 119.863L126.798 120.263L128.031 126.067ZM136.733 120.975C137.18 123.079 136.862 124.829 135.78 126.223C134.706 127.616 132.957 128.571 130.532 129.086L128.753 129.464L130.231 136.418L126.086 137.299L121.93 117.748L128.175 116.42C130.547 115.916 132.456 116.046 133.905 116.81C135.36 117.563 136.303 118.951 136.733 120.975ZM158.946 120.069C159.634 123.306 159.36 125.964 158.125 128.043C156.89 130.123 154.774 131.481 151.779 132.118C148.783 132.754 146.298 132.374 144.324 130.977C142.35 129.579 141.017 127.253 140.325 123.999C139.633 120.745 139.908 118.092 141.149 116.039C142.397 113.975 144.523 112.624 147.527 111.985C150.532 111.347 153.011 111.724 154.966 113.116C156.93 114.506 158.256 116.824 158.946 120.069ZM144.677 123.102C145.141 125.287 145.905 126.843 146.969 127.773C148.034 128.702 149.39 128.991 151.04 128.641C154.347 127.938 155.534 125.388 154.6 120.993C153.664 116.589 151.551 114.736 148.261 115.436C146.611 115.786 145.486 116.608 144.885 117.9C144.282 119.184 144.213 120.918 144.677 123.102ZM182.427 125.324L177.158 126.444L165.508 113.461L165.388 113.486C166.113 116.063 166.593 117.908 166.83 119.022L168.786 128.223L165.082 129.01L160.926 109.459L166.155 108.348L177.759 121.186L177.853 121.166C177.179 118.654 176.73 116.871 176.507 115.819L174.54 106.565L178.271 105.772L182.427 125.324ZM198.621 121.881L187.361 124.275L183.205 104.723L194.466 102.33L195.188 105.727L188.073 107.239L188.986 111.532L195.605 110.125L196.327 113.521L189.708 114.928L190.779 119.97L197.894 118.458L198.621 121.881ZM220.058 117.325L214.789 118.445L203.14 105.462L203.02 105.488C203.745 108.064 204.225 109.909 204.462 111.023L206.418 120.224L202.714 121.012L198.558 101.46L203.787 100.349L215.391 113.187L215.485 113.167C214.811 110.655 214.362 108.873 214.139 107.821L212.172 98.5664L215.903 97.7733L220.058 117.325ZM232.536 114.673L228.39 115.554L224.968 99.4527L219.658 100.581L218.925 97.1309L233.689 93.9927L234.422 97.443L229.113 98.5715L232.536 114.673Z" fill="#FDD238"/>
<g filter="url(#filter5_d)">
<g filter="url(#filter6_f)">
<circle cx="188.722" cy="52.7222" r="38.7222" fill="url(#paint4_linear)"/>
</g>
<circle cx="188.544" cy="53.2778" r="38.7222" fill="#EA7E00"/>
<circle cx="186.722" cy="48.7222" r="38.7222" fill="url(#paint5_linear)"/>
<g filter="url(#filter7_i)">
<circle cx="186.722" cy="48.7222" r="30.5222" fill="url(#paint6_linear)"/>
</g>
<g filter="url(#filter8_d)">
<path d="M179.06 61.3064C176.091 59.6892 173.496 57.5852 171.275 54.9945L174.637 48.0891C175.847 49.6904 177.26 51.2274 178.876 52.7003C180.499 54.1593 182.024 55.2364 183.452 55.9318C184.631 56.5057 185.558 56.7856 186.234 56.7716C186.93 56.7505 187.44 56.4071 187.765 55.7415C187.987 55.284 187.975 54.7978 187.728 54.2831C187.495 53.7751 187.012 53.0939 186.279 52.2395C185.56 51.3918 184.555 50.3022 183.265 48.9708C181.821 47.4616 180.754 46.0416 180.064 44.7108C179.381 43.3661 179.033 42.073 179.02 40.8316C179.028 39.5831 179.396 38.21 180.125 36.7125C181.239 34.4246 182.845 32.9937 184.943 32.4197C187.04 31.8458 189.633 32.122 192.721 33.2483L194.109 30.3988L198.414 32.4951L197.047 35.303C199.732 36.799 202.181 38.8321 204.395 41.4023L199.034 46.1249C196.77 43.4105 194.474 41.4861 192.144 40.3519C191.035 39.8118 190.184 39.569 189.592 39.6235C189.02 39.6709 188.605 39.9581 188.349 40.485C188.126 40.9426 188.1 41.4015 188.27 41.8619C188.461 42.3151 188.868 42.9247 189.49 43.6907C190.118 44.4428 191.029 45.4092 192.22 46.5899C194.619 49.027 196.128 51.2114 196.749 53.1431C197.376 55.0609 197.187 57.0528 196.181 59.1189C195.046 61.4484 193.383 62.9799 191.19 63.7135C189.012 64.4538 186.424 64.3086 183.426 63.278L181.472 67.2922L177.166 65.1959L179.06 61.3064Z" fill="white"/>
</g>
</g>
<g filter="url(#filter9_i)">
<rect x="53.0892" y="262.32" width="60" height="60" rx="14" transform="rotate(-67 53.0892 262.32)" fill="#B12681"/>
</g>
<g style="mix-blend-mode:soft-light" opacity="0.5">
<mask id="mask0" mask-type="alpha" maskUnits="userSpaceOnUse" x="53" y="207" width="79" height="79">
<rect x="53.0892" y="262.32" width="60" height="60" rx="14" transform="rotate(-67 53.0892 262.32)" fill="#C4C4C4"/>
</mask>
<g mask="url(#mask0)">
<path d="M119.041 217.338L114.546 206.212C114.546 206.212 88.5662 211.316 78.8307 215.249C69.0953 219.183 46.8616 233.558 46.8616 233.558L51.3568 244.684C51.3568 244.684 70.1675 233.849 84.0752 228.23C97.983 222.611 119.041 217.338 119.041 217.338Z" fill="white"/>
<path d="M131.029 247.008L135.524 258.134C135.524 258.134 113.29 272.51 103.555 276.443C93.8194 280.377 67.8396 285.481 67.8396 285.481L63.3443 274.354C63.3443 274.354 82.5482 269.831 98.3104 263.463C114.072 257.094 131.029 247.008 131.029 247.008Z" fill="white"/>
<path d="M52.3214 255.08C52.3214 255.08 71.5066 245.172 88.1959 238.429C104.885 231.686 125.569 225.486 125.569 225.486L130.439 237.54C130.439 237.54 112.644 246.886 94.5642 254.191C76.4841 261.496 57.1912 267.134 57.1912 267.134L52.3214 255.08Z" fill="white"/>
</g>
</g>
<mask id="mask1" mask-type="alpha" maskUnits="userSpaceOnUse" x="53" y="207" width="79" height="79">
<rect x="53.0892" y="262.32" width="60" height="60" rx="14" transform="rotate(-67 53.0892 262.32)" fill="#C4C4C4"/>
</mask>
<g mask="url(#mask1)">
<g style="mix-blend-mode:soft-light" opacity="0.5">
<circle cx="60.7694" cy="227.939" r="36" transform="rotate(-22 60.7694 227.939)" fill="white"/>
</g>
</g>
<g filter="url(#filter10_f)">
<path d="M66.7044 241.675C67.9729 237.601 72.2118 229.17 74.1639 225.293C76.1161 221.417 77.8703 223.654 76.7695 226.596C76.044 228.535 72.569 235.973 70.284 240.82C68.998 243.547 65.8079 244.554 66.7044 241.675Z" fill="white"/>
</g>
<g filter="url(#filter11_f)">
<path d="M106.965 269.502C108.875 265.751 108.07 266.899 110.191 262.806C112.313 258.713 113.437 261.495 112.753 264.194C112.458 265.355 111.578 267.165 110.671 268.85C109.218 271.55 105.574 272.235 106.965 269.502Z" fill="white"/>
</g>
<path d="M125.314 229.086C127.233 221.194 136.274 217.448 143.212 221.67L152.268 227.181C154.412 228.485 156.91 229.085 159.413 228.895L169.983 228.094C178.082 227.481 184.438 234.921 182.567 242.825L180.124 253.14C179.546 255.582 179.748 258.144 180.701 260.465L184.73 270.271C187.816 277.783 182.703 286.128 174.609 286.79L164.043 287.655C161.542 287.86 159.168 288.844 157.256 290.468L149.175 297.329C142.983 302.585 133.467 300.302 130.336 292.808L126.248 283.027C125.281 280.712 123.612 278.758 121.476 277.441L112.454 271.875C105.541 267.611 104.772 257.856 110.932 252.562L118.971 245.652C120.874 244.016 122.216 241.825 122.809 239.387L125.314 229.086Z" fill="url(#paint7_linear)"/>
<g filter="url(#filter12_i)">
<path d="M128.512 232.587C130.112 226.011 137.645 222.889 143.427 226.407L151.853 231.534C153.639 232.621 155.722 233.121 157.807 232.963L167.642 232.218C174.39 231.707 179.687 237.907 178.128 244.493L175.856 254.091C175.374 256.126 175.542 258.261 176.337 260.195L180.084 269.318C182.656 275.579 178.396 282.532 171.65 283.084L161.82 283.889C159.736 284.06 157.758 284.879 156.164 286.233L148.645 292.616C143.486 296.997 135.556 295.094 132.946 288.849L129.143 279.749C128.337 277.819 126.946 276.191 125.166 275.093L116.772 269.916C111.011 266.362 110.371 258.232 115.503 253.821L122.983 247.392C124.569 246.029 125.688 244.203 126.182 242.171L128.512 232.587Z" fill="url(#paint8_linear)"/>
</g>
<path opacity="0.5" d="M138.438 237.564C138.598 236.906 139.352 236.594 139.93 236.946L151.673 244.092C151.852 244.2 152.06 244.25 152.268 244.235L165.976 243.196C166.651 243.145 167.18 243.765 167.024 244.424L163.857 257.8C163.809 258.004 163.826 258.217 163.905 258.411L169.129 271.126C169.386 271.752 168.96 272.448 168.285 272.503L154.585 273.624C154.376 273.641 154.178 273.723 154.019 273.859L143.54 282.756C143.024 283.194 142.231 283.003 141.97 282.379L136.67 269.695C136.589 269.502 136.45 269.34 136.272 269.23L124.572 262.013C123.996 261.658 123.932 260.845 124.445 260.404L134.87 251.443C135.029 251.307 135.141 251.124 135.19 250.921L138.438 237.564Z" fill="#FCB11D"/>
<path opacity="0.5" d="M142.266 246.802C142.426 246.145 143.179 245.833 143.758 246.184L150.226 250.121C150.405 250.229 150.613 250.279 150.822 250.263L158.372 249.691C159.047 249.64 159.577 250.26 159.421 250.919L157.676 258.287C157.628 258.491 157.645 258.704 157.724 258.898L160.602 265.902C160.859 266.528 160.433 267.224 159.758 267.279L152.211 267.896C152.003 267.914 151.805 267.996 151.646 268.131L145.873 273.032C145.357 273.47 144.564 273.28 144.304 272.655L141.384 265.668C141.303 265.475 141.164 265.313 140.986 265.203L134.541 261.227C133.965 260.872 133.901 260.059 134.415 259.618L140.157 254.682C140.316 254.546 140.427 254.363 140.477 254.16L142.266 246.802Z" fill="#FCE899"/>
<path opacity="0.5" d="M145.141 251.632L149.537 254.307L154.667 253.918L153.482 258.925L155.437 263.684L150.309 264.104L146.386 267.434L144.403 262.687L140.023 259.986L143.925 256.632L145.141 251.632Z" fill="#FCB11D"/>
<g style="mix-blend-mode:soft-light" opacity="0.4">
<mask id="mask2" mask-type="alpha" maskUnits="userSpaceOnUse" x="95" y="205" width="105" height="103">
<path d="M125.314 229.086C127.233 221.194 136.274 217.448 143.212 221.67L152.268 227.181C154.412 228.485 156.91 229.085 159.413 228.895L169.983 228.094C178.082 227.481 184.438 234.921 182.567 242.825L180.124 253.14C179.546 255.582 179.748 258.144 180.701 260.465L184.73 270.271C187.816 277.783 182.703 286.128 174.609 286.79L164.043 287.655C161.542 287.86 159.168 288.844 157.256 290.468L149.175 297.329C142.983 302.585 133.467 300.302 130.336 292.808L126.248 283.027C125.281 280.712 123.612 278.758 121.476 277.441L112.454 271.875C105.541 267.611 104.772 257.856 110.932 252.562L118.971 245.652C120.874 244.016 122.216 241.825 122.809 239.387L125.314 229.086Z" fill="url(#paint9_linear)"/>
</mask>
<g mask="url(#mask2)">
<circle cx="109.286" cy="230.407" r="38.3333" transform="rotate(-22.5061 109.286 230.407)" fill="white"/>
</g>
</g>
<g filter="url(#filter13_f)">
<path d="M171.65 283.084C177.425 282.612 181.378 277.448 180.783 272.044L180.684 271.706C180.403 270.749 178.972 270.722 178.609 271.65C178.015 273.168 177.209 275.003 176.245 276.63C175.281 278.259 173.13 279.832 171.07 281.063C170.227 281.567 170.671 283.165 171.65 283.084Z" fill="white"/>
</g>
<g filter="url(#filter14_f)">
<path d="M126.182 242.171C125.688 244.203 124.569 246.029 122.983 247.392L120.477 249.629C119.901 250.143 119.844 251.024 120.35 251.607C120.837 252.168 121.626 252.349 122.258 251.96C123.589 251.141 125.872 249.393 127.588 246.277C129.422 242.945 129.559 240.429 129.487 239.259C129.458 238.789 129.174 238.393 128.778 238.138C128.135 237.725 127.276 238.058 127.08 238.797L126.182 242.171Z" fill="white"/>
</g>
<defs>
<filter id="filter0_d" x="9" y="86.3275" width="93.1915" height="93.7256" filterUnits="userSpaceOnUse" color-interpolation-filters="sRGB">
<feFlood flood-opacity="0" result="BackgroundImageFix"/>
<feColorMatrix in="SourceAlpha" type="matrix" values="0 0 0 0 0 0 0 0 0 0 0 0 0 0 0 0 0 0 127 0"/>
<feOffset dy="4"/>
<feGaussianBlur stdDeviation="2"/>
<feColorMatrix type="matrix" values="0 0 0 0 0.808333 0 0 0 0 0.25934 0 0 0 0 0.412905 0 0 0 0.34 0"/>
<feBlend mode="normal" in2="BackgroundImageFix" result="effect1_dropShadow"/>
<feBlend mode="normal" in="SourceGraphic" in2="effect1_dropShadow" result="shape"/>
</filter>
<filter id="filter1_f" x="0.316284" y="74.0418" width="110.161" height="110.161" filterUnits="userSpaceOnUse" color-interpolation-filters="sRGB">
<feFlood flood-opacity="0" result="BackgroundImageFix"/>
<feBlend mode="normal" in="SourceGraphic" in2="BackgroundImageFix" result="shape"/>
<feGaussianBlur stdDeviation="7" result="effect1_foregroundBlur"/>
</filter>
<filter id="filter2_i" x="24.7299" y="95.0269" width="64.7623" height="67.7623" filterUnits="userSpaceOnUse" color-interpolation-filters="sRGB">
<feFlood flood-opacity="0" result="BackgroundImageFix"/>
<feBlend mode="normal" in="SourceGraphic" in2="BackgroundImageFix" result="shape"/>
<feColorMatrix in="SourceAlpha" type="matrix" values="0 0 0 0 0 0 0 0 0 0 0 0 0 0 0 0 0 0 127 0" result="hardAlpha"/>
<feOffset dy="4"/>
<feGaussianBlur stdDeviation="1.5"/>
<feComposite in2="hardAlpha" operator="arithmetic" k2="-1" k3="1"/>
<feColorMatrix type="matrix" values="0 0 0 0 0.916667 0 0 0 0 0.561941 0 0 0 0 0.145139 0 0 0 1 0"/>
<feBlend mode="normal" in2="shape" result="effect1_innerShadow"/>
</filter>
<filter id="filter3_d" x="38.8724" y="108.387" width="38.5649" height="38.7127" filterUnits="userSpaceOnUse" color-interpolation-filters="sRGB">
<feFlood flood-opacity="0" result="BackgroundImageFix"/>
<feColorMatrix in="SourceAlpha" type="matrix" values="0 0 0 0 0 0 0 0 0 0 0 0 0 0 0 0 0 0 127 0"/>
<feOffset dx="1" dy="2"/>
<feColorMatrix type="matrix" values="0 0 0 0 0.845833 0 0 0 0 0.471082 0 0 0 0 0.0281945 0 0 0 1 0"/>
<feBlend mode="normal" in2="BackgroundImageFix" result="effect1_dropShadow"/>
<feBlend mode="normal" in="SourceGraphic" in2="effect1_dropShadow" result="shape"/>
</filter>
<filter id="filter4_d" x="44.9683" y="124.821" width="222.529" height="82.7711" filterUnits="userSpaceOnUse" color-interpolation-filters="sRGB">
<feFlood flood-opacity="0" result="BackgroundImageFix"/>
<feColorMatrix in="SourceAlpha" type="matrix" values="0 0 0 0 0 0 0 0 0 0 0 0 0 0 0 0 0 0 127 0"/>
<feOffset dx="-4" dy="3"/>
<feColorMatrix type="matrix" values="0 0 0 0 0.545833 0 0 0 0 0.14783 0 0 0 0 0.538394 0 0 0 1 0"/>
<feBlend mode="normal" in2="BackgroundImageFix" result="effect1_dropShadow"/>
<feBlend mode="normal" in="SourceGraphic" in2="effect1_dropShadow" result="shape"/>
</filter>
<filter id="filter5_d" x="144" y="9.99999" width="87.4445" height="90" filterUnits="userSpaceOnUse" color-interpolation-filters="sRGB">
<feFlood flood-opacity="0" result="BackgroundImageFix"/>
<feColorMatrix in="SourceAlpha" type="matrix" values="0 0 0 0 0 0 0 0 0 0 0 0 0 0 0 0 0 0 127 0"/>
<feOffset dy="4"/>
<feGaussianBlur stdDeviation="2"/>
<feColorMatrix type="matrix" values="0 0 0 0 0.808333 0 0 0 0 0.25934 0 0 0 0 0.412905 0 0 0 0.34 0"/>
<feBlend mode="normal" in2="BackgroundImageFix" result="effect1_dropShadow"/>
<feBlend mode="normal" in="SourceGraphic" in2="effect1_dropShadow" result="shape"/>
</filter>
<filter id="filter6_f" x="136" y="-7.62939e-06" width="105.444" height="105.444" filterUnits="userSpaceOnUse" color-interpolation-filters="sRGB">
<feFlood flood-opacity="0" result="BackgroundImageFix"/>
<feBlend mode="normal" in="SourceGraphic" in2="BackgroundImageFix" result="shape"/>
<feGaussianBlur stdDeviation="7" result="effect1_foregroundBlur"/>
</filter>
<filter id="filter7_i" x="156.2" y="18.2" width="61.0444" height="64.0444" filterUnits="userSpaceOnUse" color-interpolation-filters="sRGB">
<feFlood flood-opacity="0" result="BackgroundImageFix"/>
<feBlend mode="normal" in="SourceGraphic" in2="BackgroundImageFix" result="shape"/>
<feColorMatrix in="SourceAlpha" type="matrix" values="0 0 0 0 0 0 0 0 0 0 0 0 0 0 0 0 0 0 127 0" result="hardAlpha"/>
<feOffset dy="4"/>
<feGaussianBlur stdDeviation="1.5"/>
<feComposite in2="hardAlpha" operator="arithmetic" k2="-1" k3="1"/>
<feColorMatrix type="matrix" values="0 0 0 0 0.916667 0 0 0 0 0.561941 0 0 0 0 0.145139 0 0 0 1 0"/>
<feBlend mode="normal" in2="shape" result="effect1_innerShadow"/>
</filter>
<filter id="filter8_d" x="171.275" y="30.3988" width="34.12" height="38.8935" filterUnits="userSpaceOnUse" color-interpolation-filters="sRGB">
<feFlood flood-opacity="0" result="BackgroundImageFix"/>
<feColorMatrix in="SourceAlpha" type="matrix" values="0 0 0 0 0 0 0 0 0 0 0 0 0 0 0 0 0 0 127 0"/>
<feOffset dx="1" dy="2"/>
<feColorMatrix type="matrix" values="0 0 0 0 0.845833 0 0 0 0 0.471082 0 0 0 0 0.0281945 0 0 0 1 0"/>
<feBlend mode="normal" in2="BackgroundImageFix" result="effect1_dropShadow"/>
<feBlend mode="normal" in="SourceGraphic" in2="effect1_dropShadow" result="shape"/>
</filter>
<filter id="filter9_i" x="53.0892" y="207.089" width="78.6742" height="78.6742" filterUnits="userSpaceOnUse" color-interpolation-filters="sRGB">
<feFlood flood-opacity="0" result="BackgroundImageFix"/>
<feBlend mode="normal" in="SourceGraphic" in2="BackgroundImageFix" result="shape"/>
<feColorMatrix in="SourceAlpha" type="matrix" values="0 0 0 0 0 0 0 0 0 0 0 0 0 0 0 0 0 0 127 0" result="hardAlpha"/>
<feMorphology radius="4" operator="erode" in="SourceAlpha" result="effect1_innerShadow"/>
<feOffset/>
<feGaussianBlur stdDeviation="5.5"/>
<feComposite in2="hardAlpha" operator="arithmetic" k2="-1" k3="1"/>
<feColorMatrix type="matrix" values="0 0 0 0 0.958333 0 0 0 0 0.371354 0 0 0 0 0.892062 0 0 0 1 0"/>
<feBlend mode="normal" in2="shape" result="effect1_innerShadow"/>
</filter>
<filter id="filter10_f" x="64.8641" y="221.653" width="14.171" height="23.5472" filterUnits="userSpaceOnUse" color-interpolation-filters="sRGB">
<feFlood flood-opacity="0" result="BackgroundImageFix"/>
<feBlend mode="normal" in="SourceGraphic" in2="BackgroundImageFix" result="shape"/>
<feGaussianBlur stdDeviation="0.5" result="effect1_foregroundBlur"/>
</filter>
<filter id="filter11_f" x="105.222" y="259.333" width="10.0111" height="13.8428" filterUnits="userSpaceOnUse" color-interpolation-filters="sRGB">
<feFlood flood-opacity="0" result="BackgroundImageFix"/>
<feBlend mode="normal" in="SourceGraphic" in2="BackgroundImageFix" result="shape"/>
<feGaussianBlur stdDeviation="0.5" result="effect1_foregroundBlur"/>
</filter>
<filter id="filter12_i" x="101.971" y="212.275" width="90.7942" height="89.4634" filterUnits="userSpaceOnUse" color-interpolation-filters="sRGB">
<feFlood flood-opacity="0" result="BackgroundImageFix"/>
<feBlend mode="normal" in="SourceGraphic" in2="BackgroundImageFix" result="shape"/>
<feColorMatrix in="SourceAlpha" type="matrix" values="0 0 0 0 0 0 0 0 0 0 0 0 0 0 0 0 0 0 127 0" result="hardAlpha"/>
<feOffset/>
<feGaussianBlur stdDeviation="2.5"/>
<feComposite in2="hardAlpha" operator="arithmetic" k2="-1" k3="1"/>
<feColorMatrix type="matrix" values="0 0 0 0 0.983333 0 0 0 0 0.691045 0 0 0 0 0.118819 0 0 0 1 0"/>
<feBlend mode="normal" in2="shape" result="effect1_innerShadow"/>
</filter>
<filter id="filter13_f" x="166.943" y="269.625" width="17.6331" height="15.142" filterUnits="userSpaceOnUse" color-interpolation-filters="sRGB">
<feFlood flood-opacity="0" result="BackgroundImageFix"/>
<feBlend mode="normal" in="SourceGraphic" in2="BackgroundImageFix" result="shape"/>
<feGaussianBlur stdDeviation="0.5" result="effect1_foregroundBlur"/>
</filter>
<filter id="filter14_f" x="115.569" y="236.578" width="18.4205" height="17.0493" filterUnits="userSpaceOnUse" color-interpolation-filters="sRGB">
<feFlood flood-opacity="0" result="BackgroundImageFix"/>
<feBlend mode="normal" in="SourceGraphic" in2="BackgroundImageFix" result="shape"/>
<feGaussianBlur stdDeviation="0.5" result="effect1_foregroundBlur"/>
</filter>
<linearGradient id="paint0_linear" x1="55.3969" y1="99.4231" x2="55.3969" y2="158.822" gradientUnits="userSpaceOnUse">
<stop stop-color="#FFF089"/>
<stop offset="1" stop-color="#FEA800"/>
</linearGradient>
<linearGradient id="paint1_linear" x1="57.111" y1="97.7088" x2="57.111" y2="157.107" gradientUnits="userSpaceOnUse">
<stop stop-color="#FFF089"/>
<stop offset="1" stop-color="#FEA800"/>
</linearGradient>
<linearGradient id="paint2_linear" x1="49.7736" y1="105.745" x2="65.1473" y2="148.372" gradientUnits="userSpaceOnUse">
<stop stop-color="#FFB35A"/>
<stop offset="1" stop-color="#F37F13"/>
</linearGradient>
<linearGradient id="paint3_linear" x1="77.4999" y1="-20" x2="257.055" y2="213.594" gradientUnits="userSpaceOnUse">
<stop stop-color="#FE33B9"/>
<stop offset="1" stop-color="#8B41A0"/>
</linearGradient>
<linearGradient id="paint4_linear" x1="188.722" y1="14" x2="188.722" y2="91.4444" gradientUnits="userSpaceOnUse">
<stop stop-color="#FFF089"/>
<stop offset="1" stop-color="#FEA800"/>
</linearGradient>
<linearGradient id="paint5_linear" x1="186.722" y1="9.99999" x2="186.722" y2="87.4444" gradientUnits="userSpaceOnUse">
<stop stop-color="#FFF089"/>
<stop offset="1" stop-color="#FEA800"/>
</linearGradient>
<linearGradient id="paint6_linear" x1="177.156" y1="20.4778" x2="197.2" y2="76.0555" gradientUnits="userSpaceOnUse">
<stop stop-color="#FFB35A"/>
<stop offset="1" stop-color="#F37F13"/>
</linearGradient>
<linearGradient id="paint7_linear" x1="133.02" y1="222.377" x2="160.771" y2="289.356" gradientUnits="userSpaceOnUse">
<stop stop-color="#FBE38C"/>
<stop offset="1" stop-color="#FF9B25"/>
</linearGradient>
<linearGradient id="paint8_linear" x1="134.615" y1="226.227" x2="159.814" y2="287.046" gradientUnits="userSpaceOnUse">
<stop stop-color="#FFEBA2"/>
<stop offset="1" stop-color="#FFBB35"/>
</linearGradient>
<linearGradient id="paint9_linear" x1="133.02" y1="222.377" x2="160.771" y2="289.356" gradientUnits="userSpaceOnUse">
<stop stop-color="#FB8CA2"/>
<stop offset="1" stop-color="#FD7495"/>
</linearGradient>
</defs>
</svg>
