<svg width="320" height="492" viewBox="0 0 320 492" fill="none" xmlns="http://www.w3.org/2000/svg">
<g opacity="0.9" filter="url(#filter0_f)">
<circle cx="160" cy="190" r="160" fill="#FF6D96"/>
</g>
<circle cx="160" cy="182" r="110" fill="#B61274"/>
<g filter="url(#filter1_di)">
<circle cx="160" cy="183" r="84" fill="#97065D"/>
</g>
<g filter="url(#filter2_f)">
<circle cx="161.002" cy="186.137" r="49.3626" transform="rotate(-27.0786 161.002 186.137)" fill="url(#paint0_linear)"/>
</g>
<circle cx="161.557" cy="184.422" r="49.3626" transform="rotate(-27.0786 161.557 184.422)" fill="url(#paint1_linear)"/>
<g filter="url(#filter3_i)">
<circle cx="161.557" cy="184.422" r="38.9093" transform="rotate(-27.0786 161.557 184.422)" fill="url(#paint2_linear)"/>
</g>
<g filter="url(#filter4_d)">
<path d="M160.163 203.152C155.854 203.04 151.688 202.157 147.664 200.505L147.473 190.716C149.776 191.832 152.271 192.756 154.96 193.49C157.648 194.205 160.005 194.542 162.029 194.503C163.7 194.47 164.915 194.25 165.674 193.842C166.452 193.414 166.832 192.728 166.814 191.784C166.801 191.136 166.505 190.591 165.926 190.15C165.367 189.709 164.423 189.216 163.095 188.671C161.787 188.127 160.014 187.473 157.777 186.71C155.263 185.835 153.228 184.843 151.672 183.732C150.117 182.603 148.971 181.337 148.236 179.935C147.52 178.514 147.141 176.742 147.1 174.619C147.037 171.375 148.029 168.819 150.077 166.951C152.125 165.082 155.228 163.891 159.387 163.377L159.308 159.338L165.412 159.219L165.489 163.199C169.405 163.339 173.365 164.225 177.369 165.858L174.024 174.33C169.88 172.562 166.157 171.71 162.854 171.775C161.282 171.805 160.175 172.024 159.534 172.429C158.912 172.815 158.609 173.382 158.623 174.129C158.636 174.777 158.872 175.313 159.333 175.737C159.813 176.141 160.628 176.597 161.778 177.105C162.928 177.594 164.522 178.163 166.561 178.811C170.697 180.186 173.678 181.789 175.503 183.622C177.328 185.434 178.269 187.805 178.326 190.734C178.39 194.036 177.391 196.74 175.328 198.845C173.285 200.95 170.263 202.287 166.263 202.856L166.374 208.547L160.27 208.666L160.163 203.152Z" fill="white"/>
</g>
<g filter="url(#filter5_f)">
<circle cx="116.201" cy="209.882" r="29.6176" transform="rotate(-27.0786 116.201 209.882)" fill="url(#paint3_linear)"/>
</g>
<circle cx="116.534" cy="208.853" r="29.6176" transform="rotate(-27.0786 116.534 208.853)" fill="url(#paint4_linear)"/>
<g filter="url(#filter6_i)">
<circle cx="116.534" cy="208.853" r="23.3456" transform="rotate(-27.0786 116.534 208.853)" fill="url(#paint5_linear)"/>
</g>
<g filter="url(#filter7_d)">
<path d="M115.698 220.091C113.112 220.024 110.613 219.494 108.198 218.503L108.084 212.63C109.465 213.299 110.963 213.854 112.576 214.294C114.189 214.723 115.603 214.925 116.817 214.902C117.82 214.882 118.549 214.75 119.004 214.505C119.471 214.248 119.699 213.837 119.688 213.271C119.68 212.881 119.503 212.555 119.156 212.29C118.82 212.025 118.254 211.729 117.457 211.403C116.672 211.076 115.608 210.684 114.266 210.226C112.758 209.701 111.537 209.106 110.603 208.439C109.67 207.762 108.983 207.002 108.541 206.161C108.112 205.308 107.885 204.245 107.86 202.971C107.822 201.025 108.417 199.492 109.646 198.37C110.875 197.249 112.737 196.534 115.232 196.226L115.185 193.803L118.847 193.731L118.893 196.119C121.243 196.203 123.619 196.735 126.021 197.715L124.014 202.798C121.528 201.737 119.294 201.226 117.313 201.265C116.369 201.283 115.705 201.414 115.32 201.658C114.947 201.889 114.765 202.229 114.774 202.677C114.781 203.066 114.923 203.388 115.2 203.642C115.488 203.884 115.977 204.158 116.667 204.463C117.357 204.756 118.313 205.098 119.536 205.487C122.018 206.311 123.807 207.273 124.902 208.373C125.997 209.461 126.561 210.883 126.596 212.64C126.634 214.622 126.035 216.244 124.797 217.507C123.571 218.77 121.758 219.572 119.357 219.914L119.424 223.328L115.762 223.4L115.698 220.091Z" fill="white"/>
</g>
<g filter="url(#filter8_f)">
<circle cx="211.201" cy="203.882" r="29.6176" transform="rotate(-27.0786 211.201 203.882)" fill="url(#paint6_linear)"/>
</g>
<circle cx="211.534" cy="202.853" r="29.6176" transform="rotate(-27.0786 211.534 202.853)" fill="url(#paint7_linear)"/>
<g filter="url(#filter9_i)">
<circle cx="211.534" cy="202.853" r="23.3456" transform="rotate(-27.0786 211.534 202.853)" fill="url(#paint8_linear)"/>
</g>
<g filter="url(#filter10_d)">
<path d="M210.698 214.091C208.112 214.024 205.613 213.494 203.198 212.503L203.084 206.63C204.465 207.299 205.963 207.854 207.576 208.294C209.189 208.723 210.603 208.925 211.817 208.902C212.82 208.882 213.549 208.75 214.004 208.505C214.471 208.248 214.699 207.837 214.688 207.271C214.68 206.881 214.503 206.555 214.156 206.29C213.82 206.025 213.254 205.729 212.457 205.403C211.672 205.076 210.608 204.684 209.266 204.226C207.758 203.701 206.537 203.106 205.603 202.439C204.67 201.762 203.983 201.002 203.541 200.161C203.112 199.308 202.885 198.245 202.86 196.971C202.822 195.025 203.417 193.492 204.646 192.37C205.875 191.249 207.737 190.534 210.232 190.226L210.185 187.803L213.847 187.731L213.893 190.119C216.243 190.203 218.619 190.735 221.021 191.715L219.014 196.798C216.528 195.737 214.294 195.226 212.313 195.265C211.369 195.283 210.705 195.414 210.32 195.658C209.947 195.889 209.765 196.229 209.774 196.677C209.781 197.066 209.923 197.388 210.2 197.642C210.488 197.884 210.977 198.158 211.667 198.463C212.357 198.756 213.313 199.098 214.536 199.487C217.018 200.311 218.807 201.273 219.902 202.373C220.997 203.461 221.561 204.883 221.596 206.64C221.634 208.622 221.035 210.244 219.797 211.507C218.571 212.77 216.758 213.572 214.357 213.914L214.424 217.328L210.762 217.4L210.698 214.091Z" fill="white"/>
</g>
<g filter="url(#filter11_i)">
<rect x="30" y="211" width="260" height="90" rx="45" fill="url(#paint9_radial)"/>
</g>
<g filter="url(#filter12_f)">
<path d="M63.0001 176.5L64.0001 192.234L71.6002 189.142L67.0753 195.07L73.7243 198.448L66.2681 198.606L67.7728 205.911L62.0001 200L53.0001 218L60.5001 199.5L52.2759 198.448L58.9249 195.07L54.3999 189.142L62.0001 192.234L63.0001 176.5Z" fill="#F9F5E7"/>
</g>
<g filter="url(#filter13_f)">
<circle cx="63.0001" cy="196" r="6" fill="url(#paint10_radial)"/>
</g>
<g filter="url(#filter14_f)">
<path d="M223.724 88.0001L224.724 103.734L232.324 100.642L227.799 106.57L234.448 109.948L226.992 110.106L228.497 117.411L222.724 111.5L213.724 129.5L221.224 111L213 109.948L219.649 106.57L215.124 100.642L222.724 103.734L223.724 88.0001Z" fill="#F9F5E7"/>
</g>
<g filter="url(#filter15_f)">
<circle cx="223.724" cy="107.5" r="6" fill="url(#paint11_radial)"/>
</g>
<g filter="url(#filter16_f)">
<path d="M127.724 70.0001L128.724 85.734L136.324 82.6417L131.799 88.5699L138.448 91.9478L130.992 92.1062L132.497 99.4107L126.724 93.5001L117.724 111.5L125.224 93.0001L117 91.9478L123.649 88.5699L119.124 82.6417L126.724 85.734L127.724 70.0001Z" fill="#F9F5E7"/>
</g>
<g filter="url(#filter17_f)">
<circle cx="127.724" cy="89.5001" r="6" fill="url(#paint12_radial)"/>
</g>
<g filter="url(#filter18_f)">
<path d="M83.5848 172.236L69.2824 165.603L68.371 173.758L65.3224 166.951L59.1799 171.181L62.6005 164.554L55.4639 162.389L63.4135 160.138L51.8944 143.636L64.569 159.059L69.4201 152.335L69.2136 159.79L76.583 158.644L70.2373 163.846L83.5848 172.236Z" fill="#F9F5E7"/>
</g>
<g filter="url(#filter19_f)">
<circle cx="66.4507" cy="162.927" r="6" transform="rotate(118.518 66.4507 162.927)" fill="url(#paint13_radial)"/>
</g>
<g filter="url(#filter20_f)">
<path d="M261.585 142.237L247.282 135.603L246.371 143.758L243.322 136.951L237.18 141.181L240.6 134.554L233.464 132.389L241.413 130.138L229.894 113.636L242.569 129.059L247.42 122.335L247.214 129.79L254.583 128.644L248.237 133.846L261.585 142.237Z" fill="#F9F5E7"/>
</g>
<g filter="url(#filter21_f)">
<circle cx="244.451" cy="132.927" r="6" transform="rotate(118.518 244.451 132.927)" fill="url(#paint14_radial)"/>
</g>
<g filter="url(#filter22_f)">
<path d="M180.585 95.2365L166.282 88.6033L165.371 96.7577L162.322 89.9514L156.18 94.181L159.6 87.5539L152.464 85.3886L160.413 83.1382L148.894 66.6364L161.569 82.0589L166.42 75.335L166.214 82.7899L173.583 81.6444L167.237 86.846L180.585 95.2365Z" fill="#F9F5E7"/>
</g>
<g filter="url(#filter23_f)">
<circle cx="163.451" cy="85.9266" r="6" transform="rotate(118.518 163.451 85.9266)" fill="url(#paint15_radial)"/>
</g>
<g filter="url(#filter24_f)">
<path d="M94.6965 122.632L81.2543 130.869L87.5403 136.143L79.5 135L81.5 148.5L77.5 135.5L70.9267 140.597L73.4539 132.731L53.3345 133.188L73.1949 131.171L70.2813 123.409L76.3751 127.708L79.5011 120.937L80.3195 129.101L94.6965 122.632Z" fill="#F9F5E7"/>
</g>
<g filter="url(#filter25_f)">
<circle cx="77.4575" cy="131.746" r="6" transform="rotate(62.1352 77.4575 131.746)" fill="url(#paint16_radial)"/>
</g>
<g filter="url(#filter26_f)">
<path d="M272.701 154.481L259.258 162.719L265.544 167.992L257.504 166.849L259.504 180.349L255.504 167.349L248.931 172.446L251.458 164.58L231.339 165.037L251.199 163.021L248.285 155.258L254.379 159.557L257.505 152.786L258.324 160.951L272.701 154.481Z" fill="#F9F5E7"/>
</g>
<g filter="url(#filter27_f)">
<circle cx="255.462" cy="163.595" r="6" transform="rotate(62.1352 255.462 163.595)" fill="url(#paint17_radial)"/>
</g>
<g filter="url(#filter28_f)">
<path d="M84.8356 119.634L96.1598 108.665L88.8758 104.888L96.9719 104.251L92.0784 91.5116L98.8149 103.328L104.12 96.9208L103.367 105.148L122.904 100.319L103.96 106.614L108.495 113.555L101.611 110.687L100.035 117.977L97.4574 110.187L84.8356 119.634Z" fill="#F9F5E7"/>
</g>
<g filter="url(#filter29_f)">
<circle cx="99.6744" cy="106.983" r="6" transform="rotate(-130.45 99.6744 106.983)" fill="url(#paint18_radial)"/>
</g>
<g filter="url(#filter30_f)">
<path d="M241.836 208.634L253.16 197.665L245.876 193.888L253.972 193.251L249.078 180.512L255.815 192.328L261.12 185.921L260.367 194.148L279.904 189.319L260.96 195.614L265.495 202.555L258.611 199.687L257.035 206.977L254.457 199.187L241.836 208.634Z" fill="#F9F5E7"/>
</g>
<g filter="url(#filter31_f)">
<circle cx="256.674" cy="195.982" r="6" transform="rotate(-130.45 256.674 195.982)" fill="url(#paint19_radial)"/>
</g>
<g filter="url(#filter32_f)">
<path d="M182.836 103.634L194.16 92.665L186.876 88.8878L194.972 88.2514L190.078 75.5116L196.815 87.3276L202.12 80.9208L201.367 89.1484L220.904 84.3189L201.96 90.6142L206.495 97.5553L199.611 94.6871L198.035 101.977L195.457 94.1869L182.836 103.634Z" fill="#F9F5E7"/>
</g>
<g filter="url(#filter33_f)">
<circle cx="197.674" cy="90.9826" r="6" transform="rotate(-130.45 197.674 90.9826)" fill="url(#paint20_radial)"/>
</g>
<g filter="url(#filter34_d)">
<path d="M64.3354 250.325C62.8208 250.325 61.6392 250.948 60.7905 252.194C59.9419 253.429 59.5176 255.137 59.5176 257.318C59.5176 261.851 61.2417 264.118 64.6899 264.118C65.7319 264.118 66.7417 263.973 67.7192 263.683C68.6968 263.393 69.6797 263.043 70.668 262.635V268.017C68.7021 268.887 66.4785 269.322 63.9971 269.322C60.4414 269.322 57.7129 268.291 55.8115 266.229C53.9209 264.166 52.9756 261.185 52.9756 257.286C52.9756 254.847 53.4321 252.704 54.3452 250.856C55.269 249.009 56.5903 247.591 58.3091 246.603C60.0386 245.604 62.0688 245.104 64.3999 245.104C66.9458 245.104 69.3789 245.657 71.6992 246.764L69.7495 251.775C68.8794 251.367 68.0093 251.023 67.1392 250.744C66.269 250.464 65.3345 250.325 64.3354 250.325ZM89.73 269L88.5698 264.585H80.916L79.7236 269H72.7305L80.4165 245.346H88.9082L96.6909 269H89.73ZM87.2485 259.364L86.2334 255.497C85.9971 254.638 85.707 253.526 85.3633 252.162C85.0303 250.797 84.8101 249.82 84.7026 249.229C84.606 249.777 84.4126 250.679 84.1226 251.936C83.8433 253.193 83.2148 255.669 82.2373 259.364H87.2485ZM121.683 269H113.336L104.731 252.403H104.586C104.791 255.014 104.893 257.006 104.893 258.381V269H99.2529V245.442H107.567L116.14 261.813H116.236C116.086 259.439 116.011 257.533 116.011 256.093V245.442H121.683V269ZM146.771 256.722C146.771 260.653 145.686 263.683 143.516 265.81C141.357 267.937 138.317 269 134.396 269H126.774V245.442H134.928C138.709 245.442 141.625 246.409 143.677 248.343C145.74 250.276 146.771 253.069 146.771 256.722ZM140.165 256.947C140.165 254.788 139.735 253.188 138.875 252.146C138.027 251.104 136.732 250.583 134.992 250.583H133.139V263.779H134.557C136.491 263.779 137.909 263.221 138.811 262.104C139.713 260.976 140.165 259.257 140.165 256.947ZM159.42 254.176L163.48 245.442H170.377L162.626 259.799V269H156.213V259.993L148.463 245.442H155.392L159.42 254.176ZM191.985 250.325C190.47 250.325 189.289 250.948 188.44 252.194C187.591 253.429 187.167 255.137 187.167 257.318C187.167 261.851 188.891 264.118 192.339 264.118C193.381 264.118 194.391 263.973 195.369 263.683C196.346 263.393 197.329 263.043 198.317 262.635V268.017C196.352 268.887 194.128 269.322 191.646 269.322C188.091 269.322 185.362 268.291 183.461 266.229C181.57 264.166 180.625 261.185 180.625 257.286C180.625 254.847 181.082 252.704 181.995 250.856C182.918 249.009 184.24 247.591 185.958 246.603C187.688 245.604 189.718 245.104 192.049 245.104C194.595 245.104 197.028 245.657 199.349 246.764L197.399 251.775C196.529 251.367 195.659 251.023 194.789 250.744C193.918 250.464 192.984 250.325 191.985 250.325ZM217.379 269L216.219 264.585H208.565L207.373 269H200.38L208.066 245.346H216.558L224.34 269H217.379ZM214.898 259.364L213.883 255.497C213.646 254.638 213.356 253.526 213.013 252.162C212.68 250.797 212.459 249.82 212.352 249.229C212.255 249.777 212.062 250.679 211.772 251.936C211.493 253.193 210.864 255.669 209.887 259.364H214.898ZM242.307 261.846C242.307 263.307 241.936 264.606 241.195 265.745C240.454 266.873 239.385 267.754 237.988 268.388C236.592 269.011 234.954 269.322 233.074 269.322C231.505 269.322 230.189 269.215 229.126 269C228.062 268.774 226.956 268.388 225.807 267.84V262.168C227.021 262.791 228.283 263.28 229.593 263.634C230.904 263.978 232.107 264.15 233.203 264.15C234.148 264.15 234.841 263.989 235.281 263.667C235.722 263.333 235.942 262.909 235.942 262.394C235.942 262.071 235.851 261.792 235.668 261.556C235.496 261.309 235.211 261.062 234.814 260.814C234.427 260.567 233.385 260.062 231.688 259.3C230.152 258.602 228.997 257.925 228.224 257.27C227.461 256.614 226.892 255.862 226.516 255.014C226.15 254.165 225.968 253.161 225.968 252C225.968 249.831 226.757 248.139 228.336 246.925C229.916 245.711 232.085 245.104 234.846 245.104C237.285 245.104 239.771 245.668 242.307 246.796L240.357 251.71C238.155 250.701 236.253 250.196 234.653 250.196C233.826 250.196 233.224 250.341 232.848 250.631C232.472 250.921 232.284 251.281 232.284 251.71C232.284 252.172 232.521 252.586 232.993 252.951C233.477 253.316 234.776 253.982 236.893 254.949C238.923 255.862 240.33 256.845 241.114 257.898C241.909 258.94 242.307 260.256 242.307 261.846ZM266.138 269H259.741V259.396H252.345V269H245.948V245.442H252.345V254.176H259.741V245.442H266.138V269Z" fill="white"/>
</g>
<defs>
<filter id="filter0_f" x="-142" y="-112" width="604" height="604" filterUnits="userSpaceOnUse" color-interpolation-filters="sRGB">
<feFlood flood-opacity="0" result="BackgroundImageFix"/>
<feBlend mode="normal" in="SourceGraphic" in2="BackgroundImageFix" result="shape"/>
<feGaussianBlur stdDeviation="71" result="effect1_foregroundBlur"/>
</filter>
<filter id="filter1_di" x="73" y="95.0001" width="174" height="180" filterUnits="userSpaceOnUse" color-interpolation-filters="sRGB">
<feFlood flood-opacity="0" result="BackgroundImageFix"/>
<feColorMatrix in="SourceAlpha" type="matrix" values="0 0 0 0 0 0 0 0 0 0 0 0 0 0 0 0 0 0 127 0"/>
<feOffset dy="-1"/>
<feGaussianBlur stdDeviation="1.5"/>
<feColorMatrix type="matrix" values="0 0 0 0 1 0 0 0 0 0.869333 0 0 0 0 0.533333 0 0 0 0.56 0"/>
<feBlend mode="normal" in2="BackgroundImageFix" result="effect1_dropShadow"/>
<feBlend mode="normal" in="SourceGraphic" in2="effect1_dropShadow" result="shape"/>
<feColorMatrix in="SourceAlpha" type="matrix" values="0 0 0 0 0 0 0 0 0 0 0 0 0 0 0 0 0 0 127 0" result="hardAlpha"/>
<feOffset dy="9"/>
<feGaussianBlur stdDeviation="4"/>
<feComposite in2="hardAlpha" operator="arithmetic" k2="-1" k3="1"/>
<feColorMatrix type="matrix" values="0 0 0 0 0.520833 0 0 0 0 0.0238715 0 0 0 0 0.320668 0 0 0 0.89 0"/>
<feBlend mode="normal" in2="shape" result="effect2_innerShadow"/>
</filter>
<filter id="filter2_f" x="80.5803" y="105.715" width="160.844" height="160.844" filterUnits="userSpaceOnUse" color-interpolation-filters="sRGB">
<feFlood flood-opacity="0" result="BackgroundImageFix"/>
<feBlend mode="normal" in="SourceGraphic" in2="BackgroundImageFix" result="shape"/>
<feGaussianBlur stdDeviation="7" result="effect1_foregroundBlur"/>
</filter>
<filter id="filter3_i" x="109.201" y="132.066" width="104.712" height="107.712" filterUnits="userSpaceOnUse" color-interpolation-filters="sRGB">
<feFlood flood-opacity="0" result="BackgroundImageFix"/>
<feBlend mode="normal" in="SourceGraphic" in2="BackgroundImageFix" result="shape"/>
<feColorMatrix in="SourceAlpha" type="matrix" values="0 0 0 0 0 0 0 0 0 0 0 0 0 0 0 0 0 0 127 0" result="hardAlpha"/>
<feOffset dy="4"/>
<feGaussianBlur stdDeviation="1.5"/>
<feComposite in2="hardAlpha" operator="arithmetic" k2="-1" k3="1"/>
<feColorMatrix type="matrix" values="0 0 0 0 0.916667 0 0 0 0 0.561941 0 0 0 0 0.145139 0 0 0 1 0"/>
<feBlend mode="normal" in2="shape" result="effect1_innerShadow"/>
</filter>
<filter id="filter4_d" x="133.391" y="153.368" width="60.0021" height="63.0954" filterUnits="userSpaceOnUse" color-interpolation-filters="sRGB">
<feFlood flood-opacity="0" result="BackgroundImageFix"/>
<feColorMatrix in="SourceAlpha" type="matrix" values="0 0 0 0 0 0 0 0 0 0 0 0 0 0 0 0 0 0 127 0"/>
<feOffset dx="1" dy="2"/>
<feColorMatrix type="matrix" values="0 0 0 0 0.845833 0 0 0 0 0.471082 0 0 0 0 0.0281945 0 0 0 1 0"/>
<feBlend mode="normal" in2="BackgroundImageFix" result="effect1_dropShadow"/>
<feBlend mode="normal" in="SourceGraphic" in2="effect1_dropShadow" result="shape"/>
</filter>
<filter id="filter5_f" x="62.3481" y="156.029" width="107.707" height="107.707" filterUnits="userSpaceOnUse" color-interpolation-filters="sRGB">
<feFlood flood-opacity="0" result="BackgroundImageFix"/>
<feBlend mode="normal" in="SourceGraphic" in2="BackgroundImageFix" result="shape"/>
<feGaussianBlur stdDeviation="7" result="effect1_foregroundBlur"/>
</filter>
<filter id="filter6_i" x="85.1206" y="177.44" width="62.8275" height="65.8275" filterUnits="userSpaceOnUse" color-interpolation-filters="sRGB">
<feFlood flood-opacity="0" result="BackgroundImageFix"/>
<feBlend mode="normal" in="SourceGraphic" in2="BackgroundImageFix" result="shape"/>
<feColorMatrix in="SourceAlpha" type="matrix" values="0 0 0 0 0 0 0 0 0 0 0 0 0 0 0 0 0 0 127 0" result="hardAlpha"/>
<feOffset dy="4"/>
<feGaussianBlur stdDeviation="1.5"/>
<feComposite in2="hardAlpha" operator="arithmetic" k2="-1" k3="1"/>
<feColorMatrix type="matrix" values="0 0 0 0 0.916667 0 0 0 0 0.561941 0 0 0 0 0.145139 0 0 0 1 0"/>
<feBlend mode="normal" in2="shape" result="effect1_innerShadow"/>
</filter>
<filter id="filter7_d" x="99.6344" y="190.221" width="36.4013" height="38.6572" filterUnits="userSpaceOnUse" color-interpolation-filters="sRGB">
<feFlood flood-opacity="0" result="BackgroundImageFix"/>
<feColorMatrix in="SourceAlpha" type="matrix" values="0 0 0 0 0 0 0 0 0 0 0 0 0 0 0 0 0 0 127 0"/>
<feOffset dx="1" dy="2"/>
<feColorMatrix type="matrix" values="0 0 0 0 0.845833 0 0 0 0 0.471082 0 0 0 0 0.0281945 0 0 0 1 0"/>
<feBlend mode="normal" in2="BackgroundImageFix" result="effect1_dropShadow"/>
<feBlend mode="normal" in="SourceGraphic" in2="effect1_dropShadow" result="shape"/>
</filter>
<filter id="filter8_f" x="157.348" y="150.029" width="107.707" height="107.707" filterUnits="userSpaceOnUse" color-interpolation-filters="sRGB">
<feFlood flood-opacity="0" result="BackgroundImageFix"/>
<feBlend mode="normal" in="SourceGraphic" in2="BackgroundImageFix" result="shape"/>
<feGaussianBlur stdDeviation="7" result="effect1_foregroundBlur"/>
</filter>
<filter id="filter9_i" x="180.121" y="171.44" width="62.8275" height="65.8275" filterUnits="userSpaceOnUse" color-interpolation-filters="sRGB">
<feFlood flood-opacity="0" result="BackgroundImageFix"/>
<feBlend mode="normal" in="SourceGraphic" in2="BackgroundImageFix" result="shape"/>
<feColorMatrix in="SourceAlpha" type="matrix" values="0 0 0 0 0 0 0 0 0 0 0 0 0 0 0 0 0 0 127 0" result="hardAlpha"/>
<feOffset dy="4"/>
<feGaussianBlur stdDeviation="1.5"/>
<feComposite in2="hardAlpha" operator="arithmetic" k2="-1" k3="1"/>
<feColorMatrix type="matrix" values="0 0 0 0 0.916667 0 0 0 0 0.561941 0 0 0 0 0.145139 0 0 0 1 0"/>
<feBlend mode="normal" in2="shape" result="effect1_innerShadow"/>
</filter>
<filter id="filter10_d" x="194.634" y="184.221" width="36.4013" height="38.6572" filterUnits="userSpaceOnUse" color-interpolation-filters="sRGB">
<feFlood flood-opacity="0" result="BackgroundImageFix"/>
<feColorMatrix in="SourceAlpha" type="matrix" values="0 0 0 0 0 0 0 0 0 0 0 0 0 0 0 0 0 0 127 0"/>
<feOffset dx="1" dy="2"/>
<feColorMatrix type="matrix" values="0 0 0 0 0.845833 0 0 0 0 0.471082 0 0 0 0 0.0281945 0 0 0 1 0"/>
<feBlend mode="normal" in2="BackgroundImageFix" result="effect1_dropShadow"/>
<feBlend mode="normal" in="SourceGraphic" in2="effect1_dropShadow" result="shape"/>
</filter>
<filter id="filter11_i" x="30" y="211" width="260" height="90" filterUnits="userSpaceOnUse" color-interpolation-filters="sRGB">
<feFlood flood-opacity="0" result="BackgroundImageFix"/>
<feBlend mode="normal" in="SourceGraphic" in2="BackgroundImageFix" result="shape"/>
<feColorMatrix in="SourceAlpha" type="matrix" values="0 0 0 0 0 0 0 0 0 0 0 0 0 0 0 0 0 0 127 0" result="hardAlpha"/>
<feOffset dy="1"/>
<feComposite in2="hardAlpha" operator="arithmetic" k2="-1" k3="1"/>
<feColorMatrix type="matrix" values="0 0 0 0 0.991667 0 0 0 0 0.504097 0 0 0 0 0.794977 0 0 0 1 0"/>
<feBlend mode="normal" in2="shape" result="effect1_innerShadow"/>
</filter>
<filter id="filter12_f" x="49.2759" y="173.5" width="27.4484" height="47.5" filterUnits="userSpaceOnUse" color-interpolation-filters="sRGB">
<feFlood flood-opacity="0" result="BackgroundImageFix"/>
<feBlend mode="normal" in="SourceGraphic" in2="BackgroundImageFix" result="shape"/>
<feGaussianBlur stdDeviation="1.5" result="effect1_foregroundBlur"/>
</filter>
<filter id="filter13_f" x="56.0001" y="189" width="14" height="14" filterUnits="userSpaceOnUse" color-interpolation-filters="sRGB">
<feFlood flood-opacity="0" result="BackgroundImageFix"/>
<feBlend mode="normal" in="SourceGraphic" in2="BackgroundImageFix" result="shape"/>
<feGaussianBlur stdDeviation="0.5" result="effect1_foregroundBlur"/>
</filter>
<filter id="filter14_f" x="210" y="85.0001" width="27.4484" height="47.5" filterUnits="userSpaceOnUse" color-interpolation-filters="sRGB">
<feFlood flood-opacity="0" result="BackgroundImageFix"/>
<feBlend mode="normal" in="SourceGraphic" in2="BackgroundImageFix" result="shape"/>
<feGaussianBlur stdDeviation="1.5" result="effect1_foregroundBlur"/>
</filter>
<filter id="filter15_f" x="216.724" y="100.5" width="14" height="14" filterUnits="userSpaceOnUse" color-interpolation-filters="sRGB">
<feFlood flood-opacity="0" result="BackgroundImageFix"/>
<feBlend mode="normal" in="SourceGraphic" in2="BackgroundImageFix" result="shape"/>
<feGaussianBlur stdDeviation="0.5" result="effect1_foregroundBlur"/>
</filter>
<filter id="filter16_f" x="114" y="67.0001" width="27.4484" height="47.5" filterUnits="userSpaceOnUse" color-interpolation-filters="sRGB">
<feFlood flood-opacity="0" result="BackgroundImageFix"/>
<feBlend mode="normal" in="SourceGraphic" in2="BackgroundImageFix" result="shape"/>
<feGaussianBlur stdDeviation="1.5" result="effect1_foregroundBlur"/>
</filter>
<filter id="filter17_f" x="120.724" y="82.5001" width="14" height="14" filterUnits="userSpaceOnUse" color-interpolation-filters="sRGB">
<feFlood flood-opacity="0" result="BackgroundImageFix"/>
<feBlend mode="normal" in="SourceGraphic" in2="BackgroundImageFix" result="shape"/>
<feGaussianBlur stdDeviation="0.5" result="effect1_foregroundBlur"/>
</filter>
<filter id="filter18_f" x="38.9999" y="140" width="52.7049" height="44.6595" filterUnits="userSpaceOnUse" color-interpolation-filters="sRGB">
<feFlood flood-opacity="0" result="BackgroundImageFix"/>
<feBlend mode="normal" in="SourceGraphic" in2="BackgroundImageFix" result="shape"/>
<feGaussianBlur stdDeviation="1.5" result="effect1_foregroundBlur"/>
</filter>
<filter id="filter19_f" x="57.3141" y="153.79" width="18.2732" height="18.2732" filterUnits="userSpaceOnUse" color-interpolation-filters="sRGB">
<feFlood flood-opacity="0" result="BackgroundImageFix"/>
<feBlend mode="normal" in="SourceGraphic" in2="BackgroundImageFix" result="shape"/>
<feGaussianBlur stdDeviation="0.5" result="effect1_foregroundBlur"/>
</filter>
<filter id="filter20_f" x="217" y="110" width="52.7049" height="44.6595" filterUnits="userSpaceOnUse" color-interpolation-filters="sRGB">
<feFlood flood-opacity="0" result="BackgroundImageFix"/>
<feBlend mode="normal" in="SourceGraphic" in2="BackgroundImageFix" result="shape"/>
<feGaussianBlur stdDeviation="1.5" result="effect1_foregroundBlur"/>
</filter>
<filter id="filter21_f" x="235.314" y="123.79" width="18.2732" height="18.2732" filterUnits="userSpaceOnUse" color-interpolation-filters="sRGB">
<feFlood flood-opacity="0" result="BackgroundImageFix"/>
<feBlend mode="normal" in="SourceGraphic" in2="BackgroundImageFix" result="shape"/>
<feGaussianBlur stdDeviation="0.5" result="effect1_foregroundBlur"/>
</filter>
<filter id="filter22_f" x="136" y="63.0001" width="52.7049" height="44.6595" filterUnits="userSpaceOnUse" color-interpolation-filters="sRGB">
<feFlood flood-opacity="0" result="BackgroundImageFix"/>
<feBlend mode="normal" in="SourceGraphic" in2="BackgroundImageFix" result="shape"/>
<feGaussianBlur stdDeviation="1.5" result="effect1_foregroundBlur"/>
</filter>
<filter id="filter23_f" x="154.314" y="76.79" width="18.2732" height="18.2732" filterUnits="userSpaceOnUse" color-interpolation-filters="sRGB">
<feFlood flood-opacity="0" result="BackgroundImageFix"/>
<feBlend mode="normal" in="SourceGraphic" in2="BackgroundImageFix" result="shape"/>
<feGaussianBlur stdDeviation="0.5" result="effect1_foregroundBlur"/>
</filter>
<filter id="filter24_f" x="49.996" y="110.151" width="55.5065" height="49.6421" filterUnits="userSpaceOnUse" color-interpolation-filters="sRGB">
<feFlood flood-opacity="0" result="BackgroundImageFix"/>
<feBlend mode="normal" in="SourceGraphic" in2="BackgroundImageFix" result="shape"/>
<feGaussianBlur stdDeviation="1.5" result="effect1_foregroundBlur"/>
</filter>
<filter id="filter25_f" x="68.3489" y="122.637" width="18.2173" height="18.2173" filterUnits="userSpaceOnUse" color-interpolation-filters="sRGB">
<feFlood flood-opacity="0" result="BackgroundImageFix"/>
<feBlend mode="normal" in="SourceGraphic" in2="BackgroundImageFix" result="shape"/>
<feGaussianBlur stdDeviation="0.5" result="effect1_foregroundBlur"/>
</filter>
<filter id="filter26_f" x="228" y="142" width="55.5065" height="49.6421" filterUnits="userSpaceOnUse" color-interpolation-filters="sRGB">
<feFlood flood-opacity="0" result="BackgroundImageFix"/>
<feBlend mode="normal" in="SourceGraphic" in2="BackgroundImageFix" result="shape"/>
<feGaussianBlur stdDeviation="1.5" result="effect1_foregroundBlur"/>
</filter>
<filter id="filter27_f" x="246.353" y="154.486" width="18.2173" height="18.2173" filterUnits="userSpaceOnUse" color-interpolation-filters="sRGB">
<feFlood flood-opacity="0" result="BackgroundImageFix"/>
<feBlend mode="normal" in="SourceGraphic" in2="BackgroundImageFix" result="shape"/>
<feGaussianBlur stdDeviation="0.5" result="effect1_foregroundBlur"/>
</filter>
<filter id="filter28_f" x="71" y="77.0001" width="55.3735" height="53.7946" filterUnits="userSpaceOnUse" color-interpolation-filters="sRGB">
<feFlood flood-opacity="0" result="BackgroundImageFix"/>
<feBlend mode="normal" in="SourceGraphic" in2="BackgroundImageFix" result="shape"/>
<feGaussianBlur stdDeviation="1.5" result="effect1_foregroundBlur"/>
</filter>
<filter id="filter29_f" x="90.2158" y="97.524" width="18.9171" height="18.9171" filterUnits="userSpaceOnUse" color-interpolation-filters="sRGB">
<feFlood flood-opacity="0" result="BackgroundImageFix"/>
<feBlend mode="normal" in="SourceGraphic" in2="BackgroundImageFix" result="shape"/>
<feGaussianBlur stdDeviation="0.5" result="effect1_foregroundBlur"/>
</filter>
<filter id="filter30_f" x="228" y="166" width="55.3735" height="53.7946" filterUnits="userSpaceOnUse" color-interpolation-filters="sRGB">
<feFlood flood-opacity="0" result="BackgroundImageFix"/>
<feBlend mode="normal" in="SourceGraphic" in2="BackgroundImageFix" result="shape"/>
<feGaussianBlur stdDeviation="1.5" result="effect1_foregroundBlur"/>
</filter>
<filter id="filter31_f" x="247.216" y="186.524" width="18.9171" height="18.9171" filterUnits="userSpaceOnUse" color-interpolation-filters="sRGB">
<feFlood flood-opacity="0" result="BackgroundImageFix"/>
<feBlend mode="normal" in="SourceGraphic" in2="BackgroundImageFix" result="shape"/>
<feGaussianBlur stdDeviation="0.5" result="effect1_foregroundBlur"/>
</filter>
<filter id="filter32_f" x="169" y="61.0001" width="55.3735" height="53.7946" filterUnits="userSpaceOnUse" color-interpolation-filters="sRGB">
<feFlood flood-opacity="0" result="BackgroundImageFix"/>
<feBlend mode="normal" in="SourceGraphic" in2="BackgroundImageFix" result="shape"/>
<feGaussianBlur stdDeviation="1.5" result="effect1_foregroundBlur"/>
</filter>
<filter id="filter33_f" x="188.216" y="81.524" width="18.9171" height="18.9171" filterUnits="userSpaceOnUse" color-interpolation-filters="sRGB">
<feFlood flood-opacity="0" result="BackgroundImageFix"/>
<feBlend mode="normal" in="SourceGraphic" in2="BackgroundImageFix" result="shape"/>
<feGaussianBlur stdDeviation="0.5" result="effect1_foregroundBlur"/>
</filter>
<filter id="filter34_d" x="48.9756" y="245.104" width="221.163" height="32.2183" filterUnits="userSpaceOnUse" color-interpolation-filters="sRGB">
<feFlood flood-opacity="0" result="BackgroundImageFix"/>
<feColorMatrix in="SourceAlpha" type="matrix" values="0 0 0 0 0 0 0 0 0 0 0 0 0 0 0 0 0 0 127 0"/>
<feOffset dy="4"/>
<feGaussianBlur stdDeviation="2"/>
<feColorMatrix type="matrix" values="0 0 0 0 0.545833 0 0 0 0 0.022743 0 0 0 0 0.335321 0 0 0 1 0"/>
<feBlend mode="normal" in2="BackgroundImageFix" result="effect1_dropShadow"/>
<feBlend mode="normal" in="SourceGraphic" in2="effect1_dropShadow" result="shape"/>
</filter>
<linearGradient id="paint0_linear" x1="161.002" y1="136.775" x2="161.002" y2="235.5" gradientUnits="userSpaceOnUse">
<stop stop-color="#FFF089"/>
<stop offset="1" stop-color="#FEA800"/>
</linearGradient>
<linearGradient id="paint1_linear" x1="161.557" y1="135.059" x2="161.557" y2="233.785" gradientUnits="userSpaceOnUse">
<stop stop-color="#FFF089"/>
<stop offset="1" stop-color="#FEA800"/>
</linearGradient>
<linearGradient id="paint2_linear" x1="149.362" y1="148.416" x2="174.914" y2="219.266" gradientUnits="userSpaceOnUse">
<stop stop-color="#FFB35A"/>
<stop offset="1" stop-color="#F37F13"/>
</linearGradient>
<linearGradient id="paint3_linear" x1="116.201" y1="180.265" x2="116.201" y2="239.5" gradientUnits="userSpaceOnUse">
<stop stop-color="#FFF089"/>
<stop offset="1" stop-color="#FEA800"/>
</linearGradient>
<linearGradient id="paint4_linear" x1="116.534" y1="179.236" x2="116.534" y2="238.471" gradientUnits="userSpaceOnUse">
<stop stop-color="#FFF089"/>
<stop offset="1" stop-color="#FEA800"/>
</linearGradient>
<linearGradient id="paint5_linear" x1="109.217" y1="187.25" x2="124.549" y2="229.76" gradientUnits="userSpaceOnUse">
<stop stop-color="#FFB35A"/>
<stop offset="1" stop-color="#F37F13"/>
</linearGradient>
<linearGradient id="paint6_linear" x1="211.201" y1="174.265" x2="211.201" y2="233.5" gradientUnits="userSpaceOnUse">
<stop stop-color="#FFF089"/>
<stop offset="1" stop-color="#FEA800"/>
</linearGradient>
<linearGradient id="paint7_linear" x1="211.534" y1="173.236" x2="211.534" y2="232.471" gradientUnits="userSpaceOnUse">
<stop stop-color="#FFF089"/>
<stop offset="1" stop-color="#FEA800"/>
</linearGradient>
<linearGradient id="paint8_linear" x1="204.217" y1="181.25" x2="219.549" y2="223.76" gradientUnits="userSpaceOnUse">
<stop stop-color="#FFB35A"/>
<stop offset="1" stop-color="#F37F13"/>
</linearGradient>
<radialGradient id="paint9_radial" cx="0" cy="0" r="1" gradientUnits="userSpaceOnUse" gradientTransform="translate(134.5 214.5) rotate(76.7837) scale(67.7957 195.854)">
<stop stop-color="#F234A6"/>
<stop offset="1" stop-color="#B61274"/>
</radialGradient>
<radialGradient id="paint10_radial" cx="0" cy="0" r="1" gradientUnits="userSpaceOnUse" gradientTransform="translate(64.0001 198.5) rotate(-112.38) scale(9.19239)">
<stop stop-color="#FDFCFB"/>
<stop offset="1" stop-color="#ECDBA1"/>
</radialGradient>
<radialGradient id="paint11_radial" cx="0" cy="0" r="1" gradientUnits="userSpaceOnUse" gradientTransform="translate(224.724 110) rotate(-112.38) scale(9.19239)">
<stop stop-color="#FDFCFB"/>
<stop offset="1" stop-color="#ECDBA1"/>
</radialGradient>
<radialGradient id="paint12_radial" cx="0" cy="0" r="1" gradientUnits="userSpaceOnUse" gradientTransform="translate(128.724 92.0001) rotate(-112.38) scale(9.19239)">
<stop stop-color="#FDFCFB"/>
<stop offset="1" stop-color="#ECDBA1"/>
</radialGradient>
<radialGradient id="paint13_radial" cx="0" cy="0" r="1" gradientUnits="userSpaceOnUse" gradientTransform="translate(67.4507 165.427) rotate(-112.38) scale(9.19239)">
<stop stop-color="#FDFCFB"/>
<stop offset="1" stop-color="#ECDBA1"/>
</radialGradient>
<radialGradient id="paint14_radial" cx="0" cy="0" r="1" gradientUnits="userSpaceOnUse" gradientTransform="translate(245.451 135.427) rotate(-112.38) scale(9.19239)">
<stop stop-color="#FDFCFB"/>
<stop offset="1" stop-color="#ECDBA1"/>
</radialGradient>
<radialGradient id="paint15_radial" cx="0" cy="0" r="1" gradientUnits="userSpaceOnUse" gradientTransform="translate(164.451 88.4266) rotate(-112.38) scale(9.19239)">
<stop stop-color="#FDFCFB"/>
<stop offset="1" stop-color="#ECDBA1"/>
</radialGradient>
<radialGradient id="paint16_radial" cx="0" cy="0" r="1" gradientUnits="userSpaceOnUse" gradientTransform="translate(78.4575 134.246) rotate(-112.38) scale(9.19239)">
<stop stop-color="#FDFCFB"/>
<stop offset="1" stop-color="#ECDBA1"/>
</radialGradient>
<radialGradient id="paint17_radial" cx="0" cy="0" r="1" gradientUnits="userSpaceOnUse" gradientTransform="translate(256.462 166.095) rotate(-112.38) scale(9.19239)">
<stop stop-color="#FDFCFB"/>
<stop offset="1" stop-color="#ECDBA1"/>
</radialGradient>
<radialGradient id="paint18_radial" cx="0" cy="0" r="1" gradientUnits="userSpaceOnUse" gradientTransform="translate(100.674 109.483) rotate(-112.38) scale(9.19239)">
<stop stop-color="#FDFCFB"/>
<stop offset="1" stop-color="#ECDBA1"/>
</radialGradient>
<radialGradient id="paint19_radial" cx="0" cy="0" r="1" gradientUnits="userSpaceOnUse" gradientTransform="translate(257.674 198.482) rotate(-112.38) scale(9.19239)">
<stop stop-color="#FDFCFB"/>
<stop offset="1" stop-color="#ECDBA1"/>
</radialGradient>
<radialGradient id="paint20_radial" cx="0" cy="0" r="1" gradientUnits="userSpaceOnUse" gradientTransform="translate(198.674 93.4826) rotate(-112.38) scale(9.19239)">
<stop stop-color="#FDFCFB"/>
<stop offset="1" stop-color="#ECDBA1"/>
</radialGradient>
</defs>
</svg>
