<svg width="160" height="160" viewBox="0 0 160 160" fill="none" xmlns="http://www.w3.org/2000/svg">
<mask id="mask0" mask-type="alpha" maskUnits="userSpaceOnUse" x="0" y="0" width="160" height="160">
<rect width="160" height="160" fill="url(#paint0_linear)"/>
</mask>
<g mask="url(#mask0)">
<rect width="160" height="160" fill="url(#paint1_linear)"/>
<g opacity="0.7" filter="url(#filter0_f)">
<circle cx="80" cy="80" r="57" fill="#5AE1FF"/>
</g>
<g opacity="0.5">
<g style="mix-blend-mode:soft-light">
<path d="M28.4678 0C14.5622 11.1358 -8.62483 40.0074 9.8712 66.4074C32.9912 99.4074 46.059 138.111 13.3894 165" stroke="url(#paint2_linear)" stroke-width="5"/>
</g>
<g style="mix-blend-mode:soft-light">
<path d="M67.4678 0C53.5622 11.1358 30.3752 40.0074 48.8712 66.4074C71.9912 99.4074 85.059 138.111 52.3894 165" stroke="url(#paint3_linear)" stroke-width="5"/>
</g>
<g style="mix-blend-mode:soft-light">
<path d="M106.468 0C92.5622 11.1358 69.3752 40.0074 87.8712 66.4074C110.991 99.4074 124.059 138.111 91.3894 165" stroke="url(#paint4_linear)" stroke-width="5"/>
</g>
<g style="mix-blend-mode:soft-light">
<path d="M147.468 0C133.562 11.1358 110.375 40.0074 128.871 66.4074C151.991 99.4074 165.059 138.111 132.389 165" stroke="url(#paint5_linear)" stroke-width="5"/>
</g>
</g>
<g filter="url(#filter1_i)">
<path fill-rule="evenodd" clip-rule="evenodd" d="M27.9998 52C21.9246 52 16.9998 56.9249 16.9998 63V94C16.9998 100.075 21.9246 105 27.9998 105H116.5L128.336 112.891C130.329 114.22 133 112.791 133 110.394V104.955C138.606 104.45 143 99.738 143 94V63C143 56.9249 138.075 52 132 52H27.9998Z" fill="#2556D5"/>
</g>
<g style="mix-blend-mode:soft-light" opacity="0.7">
<mask id="mask1" mask-type="alpha" maskUnits="userSpaceOnUse" x="16" y="52" width="127" height="62">
<path fill-rule="evenodd" clip-rule="evenodd" d="M27.9998 52C21.9246 52 16.9998 56.9249 16.9998 63V94C16.9998 100.075 21.9246 105 27.9998 105H116.5L128.336 112.891C130.329 114.22 133 112.791 133 110.394V104.955C138.606 104.45 143 99.738 143 94V63C143 56.9249 138.075 52 132 52H27.9998Z" fill="#264DB1"/>
</mask>
<g mask="url(#mask1)">
<rect width="16.0183" height="134.483" transform="matrix(0.818763 0.574132 -0.429324 0.903151 46.7366 14)" fill="white"/>
<rect width="16.0183" height="134.483" transform="matrix(0.818763 0.574132 -0.429324 0.903151 82.7041 14)" fill="white"/>
<rect width="16.0183" height="134.483" transform="matrix(0.818763 0.574132 -0.429324 0.903151 118.671 14)" fill="white"/>
<rect width="16.0183" height="134.483" transform="matrix(0.818763 0.574132 -0.429324 0.903151 154.638 14)" fill="white"/>
</g>
</g>
<mask id="mask2" mask-type="alpha" maskUnits="userSpaceOnUse" x="16" y="52" width="127" height="62">
<path fill-rule="evenodd" clip-rule="evenodd" d="M27.9998 52C21.9246 52 16.9998 56.9249 16.9998 63V94C16.9998 100.075 21.9246 105 27.9998 105H116.5L128.336 112.891C130.329 114.22 133 112.791 133 110.394V104.955C138.606 104.45 143 99.738 143 94V63C143 56.9249 138.075 52 132 52H27.9998Z" fill="#264DB1"/>
</mask>
<g mask="url(#mask2)">
<g style="mix-blend-mode:soft-light" opacity="0.5">
<ellipse cx="67.6223" cy="55.1386" rx="64.5" ry="28" transform="rotate(-15.4164 67.6223 55.1386)" fill="white"/>
</g>
</g>
<g filter="url(#filter2_f)">
<path d="M22.6043 64.1502C24.314 59.1771 28.3681 56.7692 32.2612 55.8014C36.1543 54.8335 27.6774 52.2548 23.4843 56.7935C19.2913 61.3321 20.8945 69.1234 22.6043 64.1502Z" fill="white"/>
</g>
<g filter="url(#filter3_f)">
<path d="M138.941 94.8396C137.681 98.503 134.695 100.277 131.827 100.99C128.959 101.703 135.204 103.602 138.292 100.259C141.381 96.9155 140.2 91.1762 138.941 94.8396Z" fill="white"/>
</g>
<g filter="url(#filter4_d)">
<path d="M71.6951 87H66.2224L64.5818 79.5352C64.5037 79.2227 64.3787 78.6016 64.2068 77.6719C64.0427 76.7422 63.9216 75.9648 63.8435 75.3398C63.781 75.8477 63.6794 76.4805 63.5388 77.2383C63.3982 77.9883 63.2576 78.6797 63.1169 79.3125C62.9841 79.9453 62.4177 82.5078 61.4177 87H55.9451L51.7029 69.8672H56.1677L58.031 78.457C58.4529 80.3555 58.7419 81.8672 58.8982 82.9922C58.9998 82.1953 59.1794 81.1133 59.4373 79.7461C59.7029 78.3789 59.949 77.2461 60.1755 76.3477L61.6873 69.8672H65.9763L67.4412 76.3477C67.6912 77.3867 67.9451 78.5859 68.2029 79.9453C68.4607 81.3047 68.6326 82.3203 68.7185 82.9922C68.8201 82.125 69.0974 80.6211 69.5505 78.4805L71.449 69.8672H75.9138L71.6951 87ZM78.1287 87V69.8672H82.781V87H78.1287ZM102.808 87H96.738L90.4802 74.9297H90.3748C90.5232 76.8281 90.5974 78.2773 90.5974 79.2773V87H86.4958V69.8672H92.5427L98.7771 81.7734H98.8474C98.738 80.0469 98.6833 78.6602 98.6833 77.6133V69.8672H102.808V87Z" fill="white"/>
</g>
<g opacity="0.7" filter="url(#filter5_f)">
<path d="M154.223 50.3319C154.223 63.805 143.301 74.7271 129.828 74.7271C116.355 74.7271 105.433 63.805 105.433 50.3319C105.433 36.8589 116.355 25.9368 129.828 25.9368C143.301 25.9368 154.223 36.8589 154.223 50.3319Z" fill="url(#paint6_linear)"/>
</g>
<circle cx="128.78" cy="48.7074" r="24.3952" fill="url(#paint7_linear)"/>
<g filter="url(#filter6_i)">
<circle cx="128.78" cy="48.7074" r="19.2291" fill="url(#paint8_linear)"/>
</g>
<g filter="url(#filter7_d)">
<path d="M128.238 57.9736C126.108 57.9518 124.042 57.5485 122.041 56.7637L121.87 51.9281C123.017 52.4611 124.257 52.8985 125.591 53.2401C126.925 53.5721 128.092 53.7204 129.093 53.685C129.918 53.6558 130.517 53.5374 130.888 53.3298C131.27 53.1121 131.452 52.7703 131.435 52.3042C131.424 51.9838 131.274 51.7169 130.984 51.5035C130.704 51.2898 130.234 51.0536 129.574 50.7951C128.923 50.5361 128.042 50.227 126.93 49.8677C125.681 49.455 124.668 48.9804 123.89 48.4441C123.113 47.898 122.537 47.2815 122.162 46.5948C121.798 45.898 121.597 45.0252 121.559 43.9765C121.503 42.3743 121.973 41.1035 122.97 40.1641C123.968 39.2246 125.492 38.6116 127.543 38.3252L127.472 36.3297L130.487 36.223L130.557 38.1893C132.493 38.2278 134.457 38.6347 136.448 39.4101L134.862 43.6225C132.8 42.7815 130.953 42.3899 129.322 42.4476C128.545 42.4751 128 42.5917 127.686 42.7972C127.382 42.9927 127.237 43.2749 127.25 43.6439C127.261 43.9643 127.382 44.2274 127.613 44.4331C127.853 44.6288 128.26 44.8478 128.832 45.09C129.404 45.3225 130.196 45.591 131.209 45.8955C133.263 46.5422 134.749 47.3112 135.665 48.2024C136.581 49.0839 137.065 50.248 137.116 51.6948C137.174 53.3261 136.701 54.67 135.698 55.7263C134.705 56.7823 133.222 57.4667 131.25 57.7795L131.349 60.5906L128.334 60.6973L128.238 57.9736Z" fill="white"/>
</g>
<g filter="url(#filter8_d)">
<path d="M120.439 25.6638L118.513 32.2197L123.887 36.4394L117.331 34.5128L113.112 39.8872L115.038 33.3314L109.664 29.1117L116.22 31.0383L120.439 25.6638Z" fill="white"/>
</g>
<g filter="url(#filter9_d)">
<path d="M146.405 63.0242L143.527 62.811L142.262 65.405L142.475 62.5269L139.881 61.262L142.759 61.4751L144.024 58.8811L143.811 61.7592L146.405 63.0242Z" fill="white"/>
</g>
</g>
<defs>
<filter id="filter0_f" x="-37" y="-37" width="234" height="234" filterUnits="userSpaceOnUse" color-interpolation-filters="sRGB">
<feFlood flood-opacity="0" result="BackgroundImageFix"/>
<feBlend mode="normal" in="SourceGraphic" in2="BackgroundImageFix" result="shape"/>
<feGaussianBlur stdDeviation="30" result="effect1_foregroundBlur"/>
</filter>
<filter id="filter1_i" x="16.9998" y="52" width="126" height="61.3995" filterUnits="userSpaceOnUse" color-interpolation-filters="sRGB">
<feFlood flood-opacity="0" result="BackgroundImageFix"/>
<feBlend mode="normal" in="SourceGraphic" in2="BackgroundImageFix" result="shape"/>
<feColorMatrix in="SourceAlpha" type="matrix" values="0 0 0 0 0 0 0 0 0 0 0 0 0 0 0 0 0 0 127 0" result="hardAlpha"/>
<feMorphology radius="4" operator="erode" in="SourceAlpha" result="effect1_innerShadow"/>
<feOffset/>
<feGaussianBlur stdDeviation="7.5"/>
<feComposite in2="hardAlpha" operator="arithmetic" k2="-1" k3="1"/>
<feColorMatrix type="matrix" values="0 0 0 0 0.154167 0 0 0 0 0.797 0 0 0 0 1 0 0 0 1 0"/>
<feBlend mode="normal" in2="shape" result="effect1_innerShadow"/>
</filter>
<filter id="filter2_f" x="15.9996" y="49" width="19.3846" height="19.6475" filterUnits="userSpaceOnUse" color-interpolation-filters="sRGB">
<feFlood flood-opacity="0" result="BackgroundImageFix"/>
<feBlend mode="normal" in="SourceGraphic" in2="BackgroundImageFix" result="shape"/>
<feGaussianBlur stdDeviation="1" result="effect1_foregroundBlur"/>
</filter>
<filter id="filter3_f" x="129" y="91" width="15.3328" height="15.5265" filterUnits="userSpaceOnUse" color-interpolation-filters="sRGB">
<feFlood flood-opacity="0" result="BackgroundImageFix"/>
<feBlend mode="normal" in="SourceGraphic" in2="BackgroundImageFix" result="shape"/>
<feGaussianBlur stdDeviation="1" result="effect1_foregroundBlur"/>
</filter>
<filter id="filter4_d" x="47.7029" y="67.8672" width="59.1055" height="25.1328" filterUnits="userSpaceOnUse" color-interpolation-filters="sRGB">
<feFlood flood-opacity="0" result="BackgroundImageFix"/>
<feColorMatrix in="SourceAlpha" type="matrix" values="0 0 0 0 0 0 0 0 0 0 0 0 0 0 0 0 0 0 127 0"/>
<feOffset dy="2"/>
<feGaussianBlur stdDeviation="2"/>
<feColorMatrix type="matrix" values="0 0 0 0 0.0311285 0 0 0 0 0.212579 0 0 0 0 0.679167 0 0 0 1 0"/>
<feBlend mode="normal" in2="BackgroundImageFix" result="effect1_dropShadow"/>
<feBlend mode="normal" in="SourceGraphic" in2="effect1_dropShadow" result="shape"/>
</filter>
<filter id="filter5_f" x="91.4329" y="11.9368" width="76.7903" height="76.7903" filterUnits="userSpaceOnUse" color-interpolation-filters="sRGB">
<feFlood flood-opacity="0" result="BackgroundImageFix"/>
<feBlend mode="normal" in="SourceGraphic" in2="BackgroundImageFix" result="shape"/>
<feGaussianBlur stdDeviation="7" result="effect1_foregroundBlur"/>
</filter>
<filter id="filter6_i" x="109.551" y="29.4783" width="38.4583" height="41.4583" filterUnits="userSpaceOnUse" color-interpolation-filters="sRGB">
<feFlood flood-opacity="0" result="BackgroundImageFix"/>
<feBlend mode="normal" in="SourceGraphic" in2="BackgroundImageFix" result="shape"/>
<feColorMatrix in="SourceAlpha" type="matrix" values="0 0 0 0 0 0 0 0 0 0 0 0 0 0 0 0 0 0 127 0" result="hardAlpha"/>
<feOffset dy="4"/>
<feGaussianBlur stdDeviation="1.5"/>
<feComposite in2="hardAlpha" operator="arithmetic" k2="-1" k3="1"/>
<feColorMatrix type="matrix" values="0 0 0 0 0.916667 0 0 0 0 0.561941 0 0 0 0 0.145139 0 0 0 1 0"/>
<feBlend mode="normal" in2="shape" result="effect1_innerShadow"/>
</filter>
<filter id="filter7_d" x="114.769" y="33.2886" width="30.3331" height="32.3167" filterUnits="userSpaceOnUse" color-interpolation-filters="sRGB">
<feFlood flood-opacity="0" result="BackgroundImageFix"/>
<feColorMatrix in="SourceAlpha" type="matrix" values="0 0 0 0 0 0 0 0 0 0 0 0 0 0 0 0 0 0 127 0"/>
<feOffset dx="1" dy="2"/>
<feColorMatrix type="matrix" values="0 0 0 0 0.845833 0 0 0 0 0.471082 0 0 0 0 0.0281945 0 0 0 1 0"/>
<feBlend mode="normal" in2="BackgroundImageFix" result="effect1_dropShadow"/>
<feBlend mode="normal" in="SourceGraphic" in2="effect1_dropShadow" result="shape"/>
</filter>
<filter id="filter8_d" x="98" y="14" width="37.5511" height="37.5511" filterUnits="userSpaceOnUse" color-interpolation-filters="sRGB">
<feFlood flood-opacity="0" result="BackgroundImageFix"/>
<feColorMatrix in="SourceAlpha" type="matrix" values="0 0 0 0 0 0 0 0 0 0 0 0 0 0 0 0 0 0 127 0"/>
<feOffset/>
<feGaussianBlur stdDeviation="4"/>
<feColorMatrix type="matrix" values="0 0 0 0 1 0 0 0 0 1 0 0 0 0 1 0 0 0 0.85 0"/>
<feBlend mode="normal" in2="BackgroundImageFix" result="effect1_dropShadow"/>
<feBlend mode="normal" in="SourceGraphic" in2="effect1_dropShadow" result="shape"/>
</filter>
<filter id="filter9_d" x="131" y="50" width="24.2861" height="24.2861" filterUnits="userSpaceOnUse" color-interpolation-filters="sRGB">
<feFlood flood-opacity="0" result="BackgroundImageFix"/>
<feColorMatrix in="SourceAlpha" type="matrix" values="0 0 0 0 0 0 0 0 0 0 0 0 0 0 0 0 0 0 127 0"/>
<feOffset/>
<feGaussianBlur stdDeviation="4"/>
<feColorMatrix type="matrix" values="0 0 0 0 1 0 0 0 0 1 0 0 0 0 1 0 0 0 0.85 0"/>
<feBlend mode="normal" in2="BackgroundImageFix" result="effect1_dropShadow"/>
<feBlend mode="normal" in="SourceGraphic" in2="effect1_dropShadow" result="shape"/>
</filter>
<linearGradient id="paint0_linear" x1="3" y1="2.5" x2="154.5" y2="160" gradientUnits="userSpaceOnUse">
<stop stop-color="#29ABE3"/>
<stop offset="1" stop-color="#1021BA"/>
</linearGradient>
<linearGradient id="paint1_linear" x1="3" y1="2.5" x2="154.5" y2="160" gradientUnits="userSpaceOnUse">
<stop stop-color="#29ABE3"/>
<stop offset="1" stop-color="#1021BA"/>
</linearGradient>
<linearGradient id="paint2_linear" x1="18" y1="0" x2="18" y2="165" gradientUnits="userSpaceOnUse">
<stop stop-opacity="0"/>
<stop offset="0.536458"/>
<stop offset="1" stop-opacity="0"/>
</linearGradient>
<linearGradient id="paint3_linear" x1="57" y1="0" x2="57" y2="165" gradientUnits="userSpaceOnUse">
<stop stop-opacity="0"/>
<stop offset="0.536458"/>
<stop offset="1" stop-opacity="0"/>
</linearGradient>
<linearGradient id="paint4_linear" x1="96" y1="0" x2="96" y2="165" gradientUnits="userSpaceOnUse">
<stop stop-opacity="0"/>
<stop offset="0.536458"/>
<stop offset="1" stop-opacity="0"/>
</linearGradient>
<linearGradient id="paint5_linear" x1="137" y1="0" x2="137" y2="165" gradientUnits="userSpaceOnUse">
<stop stop-opacity="0"/>
<stop offset="0.536458"/>
<stop offset="1" stop-opacity="0"/>
</linearGradient>
<linearGradient id="paint6_linear" x1="129.828" y1="25.9368" x2="129.828" y2="74.7271" gradientUnits="userSpaceOnUse">
<stop stop-color="#FFF089"/>
<stop offset="1" stop-color="#FEA800"/>
</linearGradient>
<linearGradient id="paint7_linear" x1="128.78" y1="24.3123" x2="128.78" y2="73.1026" gradientUnits="userSpaceOnUse">
<stop stop-color="#FFF089"/>
<stop offset="1" stop-color="#FEA800"/>
</linearGradient>
<linearGradient id="paint8_linear" x1="122.753" y1="30.9133" x2="135.381" y2="65.9275" gradientUnits="userSpaceOnUse">
<stop stop-color="#FFB35A"/>
<stop offset="1" stop-color="#F37F13"/>
</linearGradient>
</defs>
</svg>
